<mxfile host="Electron" agent="Mozilla/5.0 (Macintosh; Intel Mac OS X 10_15_7) AppleWebKit/537.36 (KHTML, like Gecko) draw.io/27.0.9 Chrome/134.0.6998.205 Electron/35.4.0 Safari/537.36" version="27.0.9">
  <diagram name="Page-1" id="_m5wUxw9R0gS1sXzRMVb">
    <mxGraphModel dx="4163" dy="3328" grid="1" gridSize="10" guides="1" tooltips="1" connect="1" arrows="1" fold="1" page="1" pageScale="1" pageWidth="850" pageHeight="1100" math="0" shadow="0">
      <root>
        <mxCell id="0" />
        <mxCell id="1" parent="0" />
        <mxCell id="3pbTkxTkRfntVXWtkhW5-2" style="edgeStyle=orthogonalEdgeStyle;rounded=0;orthogonalLoop=1;jettySize=auto;html=1;" edge="1" parent="1" source="3pbTkxTkRfntVXWtkhW5-4" target="3pbTkxTkRfntVXWtkhW5-8">
          <mxGeometry relative="1" as="geometry" />
        </mxCell>
        <mxCell id="3pbTkxTkRfntVXWtkhW5-3" style="edgeStyle=orthogonalEdgeStyle;rounded=0;orthogonalLoop=1;jettySize=auto;html=1;entryX=0;entryY=0.5;entryDx=0;entryDy=0;exitX=0.5;exitY=1;exitDx=0;exitDy=0;" edge="1" parent="1" source="3pbTkxTkRfntVXWtkhW5-4" target="3pbTkxTkRfntVXWtkhW5-293">
          <mxGeometry relative="1" as="geometry" />
        </mxCell>
        <mxCell id="3pbTkxTkRfntVXWtkhW5-4" value="" style="rounded=1;whiteSpace=wrap;html=1;" vertex="1" parent="1">
          <mxGeometry x="90" y="119.5" width="220" height="170" as="geometry" />
        </mxCell>
        <mxCell id="3pbTkxTkRfntVXWtkhW5-5" value="" style="image;sketch=0;aspect=fixed;html=1;points=[];align=center;fontSize=12;image=img/lib/mscae/Shared_Dashboard.svg;" vertex="1" parent="1">
          <mxGeometry x="148.86" y="138.5" width="104.27" height="85.5" as="geometry" />
        </mxCell>
        <mxCell id="3pbTkxTkRfntVXWtkhW5-6" value="Data Models (Overview Interface)" style="text;html=1;align=center;verticalAlign=middle;whiteSpace=wrap;rounded=0;" vertex="1" parent="1">
          <mxGeometry x="138.5" y="238.5" width="125" height="30" as="geometry" />
        </mxCell>
        <mxCell id="3pbTkxTkRfntVXWtkhW5-7" style="edgeStyle=orthogonalEdgeStyle;rounded=0;orthogonalLoop=1;jettySize=auto;html=1;" edge="1" parent="1" source="3pbTkxTkRfntVXWtkhW5-8" target="3pbTkxTkRfntVXWtkhW5-11">
          <mxGeometry relative="1" as="geometry" />
        </mxCell>
        <mxCell id="3pbTkxTkRfntVXWtkhW5-8" value="" style="rounded=1;whiteSpace=wrap;html=1;" vertex="1" parent="1">
          <mxGeometry x="342.5" y="169.5" width="220" height="70" as="geometry" />
        </mxCell>
        <mxCell id="3pbTkxTkRfntVXWtkhW5-9" value="/GET/datamodel/overview/{page-num}" style="text;html=1;align=center;verticalAlign=middle;whiteSpace=wrap;rounded=0;" vertex="1" parent="1">
          <mxGeometry x="347.5" y="189.5" width="210" height="35.25" as="geometry" />
        </mxCell>
        <mxCell id="3pbTkxTkRfntVXWtkhW5-10" style="edgeStyle=orthogonalEdgeStyle;rounded=0;orthogonalLoop=1;jettySize=auto;html=1;exitX=1;exitY=0.5;exitDx=0;exitDy=0;" edge="1" parent="1" source="3pbTkxTkRfntVXWtkhW5-11" target="3pbTkxTkRfntVXWtkhW5-24">
          <mxGeometry relative="1" as="geometry" />
        </mxCell>
        <mxCell id="3pbTkxTkRfntVXWtkhW5-11" value="" style="rounded=1;whiteSpace=wrap;html=1;" vertex="1" parent="1">
          <mxGeometry x="622.5" y="169.5" width="220" height="70" as="geometry" />
        </mxCell>
        <mxCell id="3pbTkxTkRfntVXWtkhW5-12" value="/resql/get-data-models" style="text;html=1;align=center;verticalAlign=middle;whiteSpace=wrap;rounded=0;" vertex="1" parent="1">
          <mxGeometry x="662.5" y="191.75" width="140" height="25.5" as="geometry" />
        </mxCell>
        <mxCell id="3pbTkxTkRfntVXWtkhW5-13" value="" style="shape=image;html=1;verticalAlign=top;verticalLabelPosition=bottom;labelBackgroundColor=#ffffff;imageAspect=0;aspect=fixed;image=https://cdn0.iconfinder.com/data/icons/phosphor-thin-vol-3/256/number-circle-one-thin-128.png" vertex="1" parent="1">
          <mxGeometry x="80" y="45" width="43" height="43" as="geometry" />
        </mxCell>
        <mxCell id="3pbTkxTkRfntVXWtkhW5-15" value="ModelsMetadata" style="swimlane;fontStyle=0;childLayout=stackLayout;horizontal=1;startSize=30;horizontalStack=0;resizeParent=1;resizeParentMax=0;resizeLast=0;collapsible=1;marginBottom=0;whiteSpace=wrap;html=1;" vertex="1" parent="1">
          <mxGeometry x="900" y="-105.82" width="230" height="570" as="geometry" />
        </mxCell>
        <mxCell id="3pbTkxTkRfntVXWtkhW5-16" value="model_id: 123" style="text;strokeColor=none;fillColor=none;align=left;verticalAlign=middle;spacingLeft=4;spacingRight=4;overflow=hidden;points=[[0,0.5],[1,0.5]];portConstraint=eastwest;rotatable=0;whiteSpace=wrap;html=1;" vertex="1" parent="3pbTkxTkRfntVXWtkhW5-15">
          <mxGeometry y="30" width="230" height="30" as="geometry" />
        </mxCell>
        <mxCell id="3pbTkxTkRfntVXWtkhW5-17" value="model_group_key: String (&amp;lt;&amp;lt;randomint&amp;gt;&amp;gt;_&amp;lt;&amp;lt;epochtimestamp&amp;gt;&amp;gt;)" style="text;strokeColor=none;fillColor=none;align=left;verticalAlign=middle;spacingLeft=4;spacingRight=4;overflow=hidden;points=[[0,0.5],[1,0.5]];portConstraint=eastwest;rotatable=0;whiteSpace=wrap;html=1;" vertex="1" parent="3pbTkxTkRfntVXWtkhW5-15">
          <mxGeometry y="60" width="230" height="30" as="geometry" />
        </mxCell>
        <mxCell id="3pbTkxTkRfntVXWtkhW5-18" value="model_name: String" style="text;strokeColor=none;fillColor=none;align=left;verticalAlign=middle;spacingLeft=4;spacingRight=4;overflow=hidden;points=[[0,0.5],[1,0.5]];portConstraint=eastwest;rotatable=0;whiteSpace=wrap;html=1;" vertex="1" parent="3pbTkxTkRfntVXWtkhW5-15">
          <mxGeometry y="90" width="230" height="30" as="geometry" />
        </mxCell>
        <mxCell id="3pbTkxTkRfntVXWtkhW5-19" value="major_version: Int" style="text;strokeColor=none;fillColor=none;align=left;verticalAlign=middle;spacingLeft=4;spacingRight=4;overflow=hidden;points=[[0,0.5],[1,0.5]];portConstraint=eastwest;rotatable=0;whiteSpace=wrap;html=1;" vertex="1" parent="3pbTkxTkRfntVXWtkhW5-15">
          <mxGeometry y="120" width="230" height="30" as="geometry" />
        </mxCell>
        <mxCell id="3pbTkxTkRfntVXWtkhW5-20" value="minor_version: Int" style="text;strokeColor=none;fillColor=none;align=left;verticalAlign=middle;spacingLeft=4;spacingRight=4;overflow=hidden;points=[[0,0.5],[1,0.5]];portConstraint=eastwest;rotatable=0;whiteSpace=wrap;html=1;" vertex="1" parent="3pbTkxTkRfntVXWtkhW5-15">
          <mxGeometry y="150" width="230" height="30" as="geometry" />
        </mxCell>
        <mxCell id="3pbTkxTkRfntVXWtkhW5-21" value="latest: Bool (true || false)" style="text;strokeColor=none;fillColor=none;align=left;verticalAlign=middle;spacingLeft=4;spacingRight=4;overflow=hidden;points=[[0,0.5],[1,0.5]];portConstraint=eastwest;rotatable=0;whiteSpace=wrap;html=1;" vertex="1" parent="3pbTkxTkRfntVXWtkhW5-15">
          <mxGeometry y="180" width="230" height="30" as="geometry" />
        </mxCell>
        <mxCell id="3pbTkxTkRfntVXWtkhW5-23" value="deployment_env: ENUM(&quot;Production&quot;, &lt;br&gt;&quot;Testing&quot; , &quot;Undeployed&quot;)" style="text;strokeColor=none;fillColor=none;align=left;verticalAlign=middle;spacingLeft=4;spacingRight=4;overflow=hidden;points=[[0,0.5],[1,0.5]];portConstraint=eastwest;rotatable=0;whiteSpace=wrap;html=1;" vertex="1" parent="3pbTkxTkRfntVXWtkhW5-15">
          <mxGeometry y="210" width="230" height="30" as="geometry" />
        </mxCell>
        <mxCell id="3pbTkxTkRfntVXWtkhW5-24" value="training_status: ENUM(&quot;training in-progress&quot;,&quot;trained&quot;,&quot;retraining needed&quot;,&quot;deprecated&quot;)" style="text;strokeColor=none;fillColor=none;align=left;verticalAlign=middle;spacingLeft=4;spacingRight=4;overflow=hidden;points=[[0,0.5],[1,0.5]];portConstraint=eastwest;rotatable=0;whiteSpace=wrap;html=1;" vertex="1" parent="3pbTkxTkRfntVXWtkhW5-15">
          <mxGeometry y="240" width="230" height="60" as="geometry" />
        </mxCell>
        <mxCell id="3pbTkxTkRfntVXWtkhW5-25" value="base_models: ENUM(&quot;xlnet&quot;,&quot;bert&quot;,&quot;roberta&quot;)" style="text;strokeColor=none;fillColor=none;align=left;verticalAlign=middle;spacingLeft=4;spacingRight=4;overflow=hidden;points=[[0,0.5],[1,0.5]];portConstraint=eastwest;rotatable=0;whiteSpace=wrap;html=1;" vertex="1" parent="3pbTkxTkRfntVXWtkhW5-15">
          <mxGeometry y="300" width="230" height="50" as="geometry" />
        </mxCell>
        <mxCell id="3pbTkxTkRfntVXWtkhW5-26" value="last_trained: DateTime (timestamp)" style="text;strokeColor=none;fillColor=none;align=left;verticalAlign=middle;spacingLeft=4;spacingRight=4;overflow=hidden;points=[[0,0.5],[1,0.5]];portConstraint=eastwest;rotatable=0;whiteSpace=wrap;html=1;" vertex="1" parent="3pbTkxTkRfntVXWtkhW5-15">
          <mxGeometry y="350" width="230" height="30" as="geometry" />
        </mxCell>
        <mxCell id="3pbTkxTkRfntVXWtkhW5-27" value="created_timestamp: DateTime (timestamp)" style="text;strokeColor=none;fillColor=none;align=left;verticalAlign=middle;spacingLeft=4;spacingRight=4;overflow=hidden;points=[[0,0.5],[1,0.5]];portConstraint=eastwest;rotatable=0;whiteSpace=wrap;html=1;" vertex="1" parent="3pbTkxTkRfntVXWtkhW5-15">
          <mxGeometry y="380" width="230" height="30" as="geometry" />
        </mxCell>
        <mxCell id="3pbTkxTkRfntVXWtkhW5-28" value="connected_ds_id: 123" style="text;strokeColor=none;fillColor=none;align=left;verticalAlign=middle;spacingLeft=4;spacingRight=4;overflow=hidden;points=[[0,0.5],[1,0.5]];portConstraint=eastwest;rotatable=0;whiteSpace=wrap;html=1;" vertex="1" parent="3pbTkxTkRfntVXWtkhW5-15">
          <mxGeometry y="410" width="230" height="30" as="geometry" />
        </mxCell>
        <mxCell id="3pbTkxTkRfntVXWtkhW5-30" value="connected_ds_major_version: Int" style="text;strokeColor=none;fillColor=none;align=left;verticalAlign=middle;spacingLeft=4;spacingRight=4;overflow=hidden;points=[[0,0.5],[1,0.5]];portConstraint=eastwest;rotatable=0;whiteSpace=wrap;html=1;" vertex="1" parent="3pbTkxTkRfntVXWtkhW5-15">
          <mxGeometry y="440" width="230" height="30" as="geometry" />
        </mxCell>
        <mxCell id="3pbTkxTkRfntVXWtkhW5-31" value="connected_ds_minor_version: Int" style="text;strokeColor=none;fillColor=none;align=left;verticalAlign=middle;spacingLeft=4;spacingRight=4;overflow=hidden;points=[[0,0.5],[1,0.5]];portConstraint=eastwest;rotatable=0;whiteSpace=wrap;html=1;" vertex="1" parent="3pbTkxTkRfntVXWtkhW5-15">
          <mxGeometry y="470" width="230" height="30" as="geometry" />
        </mxCell>
        <mxCell id="3pbTkxTkRfntVXWtkhW5-33" value="model_s3_location: String" style="text;strokeColor=none;fillColor=none;align=left;verticalAlign=middle;spacingLeft=4;spacingRight=4;overflow=hidden;points=[[0,0.5],[1,0.5]];portConstraint=eastwest;rotatable=0;whiteSpace=wrap;html=1;" vertex="1" parent="3pbTkxTkRfntVXWtkhW5-15">
          <mxGeometry y="500" width="230" height="30" as="geometry" />
        </mxCell>
        <mxCell id="3pbTkxTkRfntVXWtkhW5-34" value="training_results: Object (JSON)" style="text;strokeColor=none;fillColor=none;align=left;verticalAlign=middle;spacingLeft=4;spacingRight=4;overflow=hidden;points=[[0,0.5],[1,0.5]];portConstraint=eastwest;rotatable=0;whiteSpace=wrap;html=1;" vertex="1" parent="3pbTkxTkRfntVXWtkhW5-15">
          <mxGeometry y="530" width="230" height="40" as="geometry" />
        </mxCell>
        <mxCell id="3pbTkxTkRfntVXWtkhW5-35" style="edgeStyle=orthogonalEdgeStyle;rounded=0;orthogonalLoop=1;jettySize=auto;html=1;exitX=0.25;exitY=0;exitDx=0;exitDy=0;entryX=1;entryY=0.25;entryDx=0;entryDy=0;" edge="1" parent="1" source="3pbTkxTkRfntVXWtkhW5-38" target="3pbTkxTkRfntVXWtkhW5-42">
          <mxGeometry relative="1" as="geometry" />
        </mxCell>
        <mxCell id="3pbTkxTkRfntVXWtkhW5-36" style="edgeStyle=orthogonalEdgeStyle;rounded=0;orthogonalLoop=1;jettySize=auto;html=1;entryX=0.467;entryY=0.03;entryDx=0;entryDy=0;entryPerimeter=0;" edge="1" parent="1" source="3pbTkxTkRfntVXWtkhW5-38" target="3pbTkxTkRfntVXWtkhW5-314">
          <mxGeometry relative="1" as="geometry">
            <Array as="points">
              <mxPoint x="1980" y="180" />
            </Array>
          </mxGeometry>
        </mxCell>
        <mxCell id="3pbTkxTkRfntVXWtkhW5-37" style="edgeStyle=orthogonalEdgeStyle;rounded=0;orthogonalLoop=1;jettySize=auto;html=1;entryX=1;entryY=0.5;entryDx=0;entryDy=0;" edge="1" parent="1" source="3pbTkxTkRfntVXWtkhW5-38" target="3pbTkxTkRfntVXWtkhW5-78">
          <mxGeometry relative="1" as="geometry" />
        </mxCell>
        <mxCell id="3pbTkxTkRfntVXWtkhW5-38" value="" style="rounded=1;whiteSpace=wrap;html=1;" vertex="1" parent="1">
          <mxGeometry x="1870" y="-11" width="220" height="170" as="geometry" />
        </mxCell>
        <mxCell id="3pbTkxTkRfntVXWtkhW5-39" value="" style="image;sketch=0;aspect=fixed;html=1;points=[];align=center;fontSize=12;image=img/lib/mscae/Shared_Dashboard.svg;" vertex="1" parent="1">
          <mxGeometry x="1928.8600000000001" y="8" width="104.27" height="85.5" as="geometry" />
        </mxCell>
        <mxCell id="3pbTkxTkRfntVXWtkhW5-40" value="Individual Data Model Interface" style="text;html=1;align=center;verticalAlign=middle;whiteSpace=wrap;rounded=0;" vertex="1" parent="1">
          <mxGeometry x="1918.5" y="108" width="125" height="30" as="geometry" />
        </mxCell>
        <mxCell id="3pbTkxTkRfntVXWtkhW5-41" style="edgeStyle=orthogonalEdgeStyle;rounded=0;orthogonalLoop=1;jettySize=auto;html=1;exitX=0;exitY=0.5;exitDx=0;exitDy=0;entryX=1;entryY=0.5;entryDx=0;entryDy=0;" edge="1" parent="1" source="3pbTkxTkRfntVXWtkhW5-42" target="3pbTkxTkRfntVXWtkhW5-44">
          <mxGeometry relative="1" as="geometry" />
        </mxCell>
        <mxCell id="3pbTkxTkRfntVXWtkhW5-42" value="" style="rounded=1;whiteSpace=wrap;html=1;" vertex="1" parent="1">
          <mxGeometry x="1550" y="-54.45" width="230" height="70" as="geometry" />
        </mxCell>
        <mxCell id="3pbTkxTkRfntVXWtkhW5-43" value="/GET/datamodels/metadata?modeId=00001" style="text;html=1;align=center;verticalAlign=middle;whiteSpace=wrap;rounded=0;" vertex="1" parent="1">
          <mxGeometry x="1555" y="-31.700000000000003" width="220" height="30" as="geometry" />
        </mxCell>
        <mxCell id="3pbTkxTkRfntVXWtkhW5-44" value="" style="rounded=1;whiteSpace=wrap;html=1;" vertex="1" parent="1">
          <mxGeometry x="1240" y="-54.45" width="230" height="70" as="geometry" />
        </mxCell>
        <mxCell id="3pbTkxTkRfntVXWtkhW5-45" value="/resql/get-model-metadata" style="text;html=1;align=center;verticalAlign=middle;whiteSpace=wrap;rounded=0;" vertex="1" parent="1">
          <mxGeometry x="1245" y="-31.700000000000003" width="220" height="24.5" as="geometry" />
        </mxCell>
        <mxCell id="3pbTkxTkRfntVXWtkhW5-46" style="edgeStyle=orthogonalEdgeStyle;rounded=0;orthogonalLoop=1;jettySize=auto;html=1;exitX=0.5;exitY=0;exitDx=0;exitDy=0;entryX=0.5;entryY=1;entryDx=0;entryDy=0;" edge="1" parent="1" source="3pbTkxTkRfntVXWtkhW5-48" target="3pbTkxTkRfntVXWtkhW5-53">
          <mxGeometry relative="1" as="geometry" />
        </mxCell>
        <mxCell id="3pbTkxTkRfntVXWtkhW5-47" style="edgeStyle=orthogonalEdgeStyle;rounded=0;orthogonalLoop=1;jettySize=auto;html=1;entryX=0.5;entryY=1;entryDx=0;entryDy=0;" edge="1" parent="1" source="3pbTkxTkRfntVXWtkhW5-48" target="3pbTkxTkRfntVXWtkhW5-300">
          <mxGeometry relative="1" as="geometry" />
        </mxCell>
        <mxCell id="3pbTkxTkRfntVXWtkhW5-48" value="" style="rounded=1;whiteSpace=wrap;html=1;" vertex="1" parent="1">
          <mxGeometry x="930" y="869" width="220" height="170" as="geometry" />
        </mxCell>
        <mxCell id="3pbTkxTkRfntVXWtkhW5-49" value="" style="image;sketch=0;aspect=fixed;html=1;points=[];align=center;fontSize=12;image=img/lib/mscae/Shared_Dashboard.svg;" vertex="1" parent="1">
          <mxGeometry x="988.8599999999999" y="888" width="98.78" height="81" as="geometry" />
        </mxCell>
        <mxCell id="3pbTkxTkRfntVXWtkhW5-50" value="Create Data Models Interface" style="text;html=1;align=center;verticalAlign=middle;whiteSpace=wrap;rounded=0;" vertex="1" parent="1">
          <mxGeometry x="978.5" y="988" width="125" height="30" as="geometry" />
        </mxCell>
        <mxCell id="3pbTkxTkRfntVXWtkhW5-51" style="edgeStyle=orthogonalEdgeStyle;rounded=0;orthogonalLoop=1;jettySize=auto;html=1;exitX=0.5;exitY=0;exitDx=0;exitDy=0;entryX=0.5;entryY=1;entryDx=0;entryDy=0;" edge="1" parent="1" source="3pbTkxTkRfntVXWtkhW5-53" target="3pbTkxTkRfntVXWtkhW5-55">
          <mxGeometry relative="1" as="geometry" />
        </mxCell>
        <mxCell id="3pbTkxTkRfntVXWtkhW5-52" style="edgeStyle=orthogonalEdgeStyle;rounded=0;orthogonalLoop=1;jettySize=auto;html=1;" edge="1" parent="1" source="3pbTkxTkRfntVXWtkhW5-53">
          <mxGeometry relative="1" as="geometry">
            <mxPoint x="1370" y="783.9999999999995" as="targetPoint" />
          </mxGeometry>
        </mxCell>
        <mxCell id="3pbTkxTkRfntVXWtkhW5-53" value="" style="rounded=1;whiteSpace=wrap;html=1;" vertex="1" parent="1">
          <mxGeometry x="930" y="749" width="220" height="70" as="geometry" />
        </mxCell>
        <mxCell id="3pbTkxTkRfntVXWtkhW5-54" value="/POST/datamodel/create" style="text;html=1;align=center;verticalAlign=middle;whiteSpace=wrap;rounded=0;" vertex="1" parent="1">
          <mxGeometry x="935" y="769" width="210" height="35.25" as="geometry" />
        </mxCell>
        <mxCell id="3pbTkxTkRfntVXWtkhW5-55" value="" style="rounded=1;whiteSpace=wrap;html=1;" vertex="1" parent="1">
          <mxGeometry x="930" y="629" width="220" height="70" as="geometry" />
        </mxCell>
        <mxCell id="3pbTkxTkRfntVXWtkhW5-56" value="/resql/create-data-model" style="text;html=1;align=center;verticalAlign=middle;whiteSpace=wrap;rounded=0;" vertex="1" parent="1">
          <mxGeometry x="970" y="651.25" width="140" height="25.5" as="geometry" />
        </mxCell>
        <mxCell id="3pbTkxTkRfntVXWtkhW5-57" style="edgeStyle=orthogonalEdgeStyle;rounded=0;orthogonalLoop=1;jettySize=auto;html=1;exitX=0.5;exitY=0;exitDx=0;exitDy=0;entryX=0.481;entryY=1.004;entryDx=0;entryDy=0;entryPerimeter=0;" edge="1" parent="1" source="3pbTkxTkRfntVXWtkhW5-55" target="3pbTkxTkRfntVXWtkhW5-34">
          <mxGeometry relative="1" as="geometry" />
        </mxCell>
        <mxCell id="3pbTkxTkRfntVXWtkhW5-58" style="edgeStyle=orthogonalEdgeStyle;rounded=0;orthogonalLoop=1;jettySize=auto;html=1;entryX=0.5;entryY=1;entryDx=0;entryDy=0;" edge="1" parent="1" source="3pbTkxTkRfntVXWtkhW5-67" target="3pbTkxTkRfntVXWtkhW5-89">
          <mxGeometry relative="1" as="geometry" />
        </mxCell>
        <mxCell id="3pbTkxTkRfntVXWtkhW5-59" style="edgeStyle=orthogonalEdgeStyle;rounded=0;orthogonalLoop=1;jettySize=auto;html=1;entryX=0;entryY=0.5;entryDx=0;entryDy=0;exitX=0.5;exitY=1;exitDx=0;exitDy=0;" edge="1" parent="1" source="3pbTkxTkRfntVXWtkhW5-67" target="3pbTkxTkRfntVXWtkhW5-122">
          <mxGeometry relative="1" as="geometry" />
        </mxCell>
        <mxCell id="3pbTkxTkRfntVXWtkhW5-60" style="edgeStyle=orthogonalEdgeStyle;rounded=0;orthogonalLoop=1;jettySize=auto;html=1;exitX=0.5;exitY=1;exitDx=0;exitDy=0;entryX=0;entryY=0.5;entryDx=0;entryDy=0;" edge="1" parent="1" source="3pbTkxTkRfntVXWtkhW5-67" target="3pbTkxTkRfntVXWtkhW5-120">
          <mxGeometry relative="1" as="geometry" />
        </mxCell>
        <mxCell id="3pbTkxTkRfntVXWtkhW5-63" style="edgeStyle=orthogonalEdgeStyle;rounded=0;orthogonalLoop=1;jettySize=auto;html=1;exitX=0.004;exitY=0.368;exitDx=0;exitDy=0;entryX=1;entryY=0.75;entryDx=0;entryDy=0;exitPerimeter=0;" edge="1" parent="1" source="3pbTkxTkRfntVXWtkhW5-67" target="3pbTkxTkRfntVXWtkhW5-131">
          <mxGeometry relative="1" as="geometry">
            <Array as="points">
              <mxPoint x="1740" y="405" />
            </Array>
          </mxGeometry>
        </mxCell>
        <mxCell id="3pbTkxTkRfntVXWtkhW5-64" style="edgeStyle=orthogonalEdgeStyle;rounded=0;orthogonalLoop=1;jettySize=auto;html=1;exitX=0.998;exitY=0.406;exitDx=0;exitDy=0;entryX=0;entryY=0.5;entryDx=0;entryDy=0;exitPerimeter=0;" edge="1" parent="1" source="3pbTkxTkRfntVXWtkhW5-67" target="3pbTkxTkRfntVXWtkhW5-166">
          <mxGeometry relative="1" as="geometry">
            <Array as="points">
              <mxPoint x="2060" y="409" />
              <mxPoint x="2190" y="409" />
              <mxPoint x="2190" y="74" />
            </Array>
          </mxGeometry>
        </mxCell>
        <mxCell id="3pbTkxTkRfntVXWtkhW5-65" style="edgeStyle=orthogonalEdgeStyle;rounded=0;orthogonalLoop=1;jettySize=auto;html=1;exitX=1;exitY=0.25;exitDx=0;exitDy=0;entryX=0;entryY=0.5;entryDx=0;entryDy=0;" edge="1" parent="1" source="3pbTkxTkRfntVXWtkhW5-67" target="3pbTkxTkRfntVXWtkhW5-177">
          <mxGeometry relative="1" as="geometry" />
        </mxCell>
        <mxCell id="3pbTkxTkRfntVXWtkhW5-66" style="edgeStyle=orthogonalEdgeStyle;rounded=0;orthogonalLoop=1;jettySize=auto;html=1;" edge="1" parent="1" source="3pbTkxTkRfntVXWtkhW5-67" target="3pbTkxTkRfntVXWtkhW5-233">
          <mxGeometry relative="1" as="geometry" />
        </mxCell>
        <mxCell id="3pbTkxTkRfntVXWtkhW5-67" value="" style="rounded=1;whiteSpace=wrap;html=1;" vertex="1" parent="1">
          <mxGeometry x="1910" y="355" width="150" height="136" as="geometry" />
        </mxCell>
        <mxCell id="3pbTkxTkRfntVXWtkhW5-68" value="" style="shape=image;html=1;verticalAlign=top;verticalLabelPosition=bottom;labelBackgroundColor=#ffffff;imageAspect=0;aspect=fixed;image=https://cdn1.iconfinder.com/data/icons/ionicons-fill-vol-2/512/logo-python-128.png;imageBackground=none;fillStyle=solid;" vertex="1" parent="1">
          <mxGeometry x="1954.25" y="379.59" width="59.41" height="59.41" as="geometry" />
        </mxCell>
        <mxCell id="3pbTkxTkRfntVXWtkhW5-69" value="" style="edgeStyle=orthogonalEdgeStyle;rounded=0;orthogonalLoop=1;jettySize=auto;html=1;" edge="1" parent="1" source="3pbTkxTkRfntVXWtkhW5-71" target="3pbTkxTkRfntVXWtkhW5-120">
          <mxGeometry relative="1" as="geometry" />
        </mxCell>
        <mxCell id="3pbTkxTkRfntVXWtkhW5-70" value="" style="edgeStyle=orthogonalEdgeStyle;rounded=0;orthogonalLoop=1;jettySize=auto;html=1;" edge="1" parent="1" source="3pbTkxTkRfntVXWtkhW5-71" target="3pbTkxTkRfntVXWtkhW5-120">
          <mxGeometry relative="1" as="geometry" />
        </mxCell>
        <mxCell id="3pbTkxTkRfntVXWtkhW5-71" value="model_trainer.py" style="text;html=1;align=center;verticalAlign=middle;whiteSpace=wrap;rounded=0;" vertex="1" parent="1">
          <mxGeometry x="1921" y="440" width="130" height="29" as="geometry" />
        </mxCell>
        <mxCell id="3pbTkxTkRfntVXWtkhW5-72" value="" style="rounded=1;whiteSpace=wrap;html=1;" vertex="1" parent="1">
          <mxGeometry x="1854.990000000001" y="258.5" width="260.01" height="64.5" as="geometry" />
        </mxCell>
        <mxCell id="3pbTkxTkRfntVXWtkhW5-73" style="edgeStyle=orthogonalEdgeStyle;rounded=0;orthogonalLoop=1;jettySize=auto;html=1;exitX=0.5;exitY=1;exitDx=0;exitDy=0;" edge="1" parent="1" source="3pbTkxTkRfntVXWtkhW5-72" target="3pbTkxTkRfntVXWtkhW5-67">
          <mxGeometry relative="1" as="geometry">
            <Array as="points" />
          </mxGeometry>
        </mxCell>
        <mxCell id="3pbTkxTkRfntVXWtkhW5-74" value="/POST/cronmanager/execute/&lt;div&gt;datamodel/model_trainer&lt;/div&gt;" style="text;html=1;align=center;verticalAlign=middle;whiteSpace=wrap;rounded=0;" vertex="1" parent="1">
          <mxGeometry x="1875.990000000001" y="274.85" width="220" height="30" as="geometry" />
        </mxCell>
        <mxCell id="3pbTkxTkRfntVXWtkhW5-75" style="edgeStyle=orthogonalEdgeStyle;rounded=0;orthogonalLoop=1;jettySize=auto;html=1;entryX=0;entryY=0.5;entryDx=0;entryDy=0;" edge="1" parent="1" source="3pbTkxTkRfntVXWtkhW5-76" target="3pbTkxTkRfntVXWtkhW5-72">
          <mxGeometry relative="1" as="geometry">
            <Array as="points">
              <mxPoint x="1645" y="290" />
              <mxPoint x="1808" y="290" />
            </Array>
          </mxGeometry>
        </mxCell>
        <mxCell id="3pbTkxTkRfntVXWtkhW5-76" value="" style="rounded=1;whiteSpace=wrap;html=1;" vertex="1" parent="1">
          <mxGeometry x="1530" y="69.00000000000003" width="230" height="58.75" as="geometry" />
        </mxCell>
        <mxCell id="3pbTkxTkRfntVXWtkhW5-77" value="" style="edgeStyle=orthogonalEdgeStyle;rounded=0;orthogonalLoop=1;jettySize=auto;html=1;" edge="1" parent="1" source="3pbTkxTkRfntVXWtkhW5-78" target="3pbTkxTkRfntVXWtkhW5-81">
          <mxGeometry relative="1" as="geometry" />
        </mxCell>
        <mxCell id="3pbTkxTkRfntVXWtkhW5-78" value="/POST/datamodel/update" style="text;html=1;align=center;verticalAlign=middle;whiteSpace=wrap;rounded=0;" vertex="1" parent="1">
          <mxGeometry x="1530" y="81.50000000000003" width="230" height="33.75" as="geometry" />
        </mxCell>
        <mxCell id="3pbTkxTkRfntVXWtkhW5-79" style="edgeStyle=orthogonalEdgeStyle;rounded=0;orthogonalLoop=1;jettySize=auto;html=1;entryX=1;entryY=0.5;entryDx=0;entryDy=0;" edge="1" parent="1" source="3pbTkxTkRfntVXWtkhW5-80" target="3pbTkxTkRfntVXWtkhW5-19">
          <mxGeometry relative="1" as="geometry" />
        </mxCell>
        <mxCell id="3pbTkxTkRfntVXWtkhW5-80" value="" style="rounded=1;whiteSpace=wrap;html=1;" vertex="1" parent="1">
          <mxGeometry x="1250" y="68.25000000000003" width="230" height="58.75" as="geometry" />
        </mxCell>
        <mxCell id="3pbTkxTkRfntVXWtkhW5-81" value="/resql/datamodel/update" style="text;html=1;align=center;verticalAlign=middle;whiteSpace=wrap;rounded=0;" vertex="1" parent="1">
          <mxGeometry x="1250" y="80.75000000000003" width="230" height="33.75" as="geometry" />
        </mxCell>
        <mxCell id="3pbTkxTkRfntVXWtkhW5-82" value="" style="rounded=1;whiteSpace=wrap;html=1;" vertex="1" parent="1">
          <mxGeometry x="2475.65" y="389.18" width="170" height="119.75" as="geometry" />
        </mxCell>
        <mxCell id="3pbTkxTkRfntVXWtkhW5-83" value="" style="sketch=0;pointerEvents=1;shadow=0;dashed=0;html=1;strokeColor=none;fillColor=#DF8C42;labelPosition=center;verticalLabelPosition=bottom;verticalAlign=top;align=center;outlineConnect=0;shape=mxgraph.veeam2.aws_s3;" vertex="1" parent="1">
          <mxGeometry x="2528.5900000000006" y="413.43" width="64.13" height="57" as="geometry" />
        </mxCell>
        <mxCell id="3pbTkxTkRfntVXWtkhW5-84" value="" style="edgeStyle=orthogonalEdgeStyle;rounded=0;orthogonalLoop=1;jettySize=auto;html=1;" edge="1" parent="1" source="3pbTkxTkRfntVXWtkhW5-89" target="3pbTkxTkRfntVXWtkhW5-82">
          <mxGeometry relative="1" as="geometry" />
        </mxCell>
        <mxCell id="3pbTkxTkRfntVXWtkhW5-85" style="edgeStyle=orthogonalEdgeStyle;rounded=0;orthogonalLoop=1;jettySize=auto;html=1;exitX=0.75;exitY=1;exitDx=0;exitDy=0;entryX=1;entryY=0.5;entryDx=0;entryDy=0;" edge="1" parent="1" source="3pbTkxTkRfntVXWtkhW5-89" target="3pbTkxTkRfntVXWtkhW5-120">
          <mxGeometry relative="1" as="geometry" />
        </mxCell>
        <mxCell id="3pbTkxTkRfntVXWtkhW5-86" style="edgeStyle=orthogonalEdgeStyle;rounded=0;orthogonalLoop=1;jettySize=auto;html=1;exitX=0.75;exitY=1;exitDx=0;exitDy=0;entryX=1;entryY=0.5;entryDx=0;entryDy=0;" edge="1" parent="1" source="3pbTkxTkRfntVXWtkhW5-89" target="3pbTkxTkRfntVXWtkhW5-122">
          <mxGeometry relative="1" as="geometry" />
        </mxCell>
        <mxCell id="3pbTkxTkRfntVXWtkhW5-89" value="" style="rounded=1;whiteSpace=wrap;html=1;" vertex="1" parent="1">
          <mxGeometry x="2240" y="248.82" width="235" height="60.87" as="geometry" />
        </mxCell>
        <mxCell id="3pbTkxTkRfntVXWtkhW5-90" value="/POST/s3-ferry/v1/files/copy" style="text;html=1;align=center;verticalAlign=middle;whiteSpace=wrap;rounded=0;" vertex="1" parent="1">
          <mxGeometry x="2257.5" y="268.25" width="195" height="20.19" as="geometry" />
        </mxCell>
        <mxCell id="3pbTkxTkRfntVXWtkhW5-91" value="Models S3 Bucket" style="text;html=1;align=center;verticalAlign=middle;whiteSpace=wrap;rounded=0;" vertex="1" parent="1">
          <mxGeometry x="2506.28" y="470.43" width="108.75" height="28" as="geometry" />
        </mxCell>
        <mxCell id="3pbTkxTkRfntVXWtkhW5-92" value="{upload models}" style="text;html=1;align=center;verticalAlign=middle;whiteSpace=wrap;rounded=0;" vertex="1" parent="1">
          <mxGeometry x="2195" y="390" width="150" height="33.75" as="geometry" />
        </mxCell>
        <mxCell id="3pbTkxTkRfntVXWtkhW5-93" value="DatasetGroupsMetadata" style="swimlane;fontStyle=0;childLayout=stackLayout;horizontal=1;startSize=30;horizontalStack=0;resizeParent=1;resizeParentMax=0;resizeLast=0;collapsible=1;marginBottom=0;whiteSpace=wrap;html=1;strokeColor=#EA6B66;" vertex="1" parent="1">
          <mxGeometry x="1360" y="897.5999999999999" width="230" height="520" as="geometry" />
        </mxCell>
        <mxCell id="3pbTkxTkRfntVXWtkhW5-94" value="datasetId: 123" style="text;strokeColor=none;fillColor=none;align=left;verticalAlign=middle;spacingLeft=4;spacingRight=4;overflow=hidden;points=[[0,0.5],[1,0.5]];portConstraint=eastwest;rotatable=0;whiteSpace=wrap;html=1;" vertex="1" parent="3pbTkxTkRfntVXWtkhW5-93">
          <mxGeometry y="30" width="230" height="30" as="geometry" />
        </mxCell>
        <mxCell id="3pbTkxTkRfntVXWtkhW5-97" value="major_version: Int" style="text;strokeColor=none;fillColor=none;align=left;verticalAlign=middle;spacingLeft=4;spacingRight=4;overflow=hidden;points=[[0,0.5],[1,0.5]];portConstraint=eastwest;rotatable=0;whiteSpace=wrap;html=1;" vertex="1" parent="3pbTkxTkRfntVXWtkhW5-93">
          <mxGeometry y="60" width="230" height="30" as="geometry" />
        </mxCell>
        <mxCell id="3pbTkxTkRfntVXWtkhW5-98" value="minor_version: Int" style="text;strokeColor=none;fillColor=none;align=left;verticalAlign=middle;spacingLeft=4;spacingRight=4;overflow=hidden;points=[[0,0.5],[1,0.5]];portConstraint=eastwest;rotatable=0;whiteSpace=wrap;html=1;" vertex="1" parent="3pbTkxTkRfntVXWtkhW5-93">
          <mxGeometry y="90" width="230" height="30" as="geometry" />
        </mxCell>
        <mxCell id="3pbTkxTkRfntVXWtkhW5-100" value="latest: Bool (true || false)" style="text;strokeColor=none;fillColor=none;align=left;verticalAlign=middle;spacingLeft=4;spacingRight=4;overflow=hidden;points=[[0,0.5],[1,0.5]];portConstraint=eastwest;rotatable=0;whiteSpace=wrap;html=1;" vertex="1" parent="3pbTkxTkRfntVXWtkhW5-93">
          <mxGeometry y="120" width="230" height="30" as="geometry" />
        </mxCell>
        <mxCell id="3pbTkxTkRfntVXWtkhW5-102" value="included_agencies: JSONB" style="text;strokeColor=none;fillColor=none;align=left;verticalAlign=middle;spacingLeft=4;spacingRight=4;overflow=hidden;points=[[0,0.5],[1,0.5]];portConstraint=eastwest;rotatable=0;whiteSpace=wrap;html=1;" vertex="1" parent="3pbTkxTkRfntVXWtkhW5-93">
          <mxGeometry y="150" width="230" height="30" as="geometry" />
        </mxCell>
        <mxCell id="3pbTkxTkRfntVXWtkhW5-105" value="last_synced:Int" style="text;strokeColor=none;fillColor=none;align=left;verticalAlign=middle;spacingLeft=4;spacingRight=4;overflow=hidden;points=[[0,0.5],[1,0.5]];portConstraint=eastwest;rotatable=0;whiteSpace=wrap;html=1;" vertex="1" parent="3pbTkxTkRfntVXWtkhW5-93">
          <mxGeometry y="180" width="230" height="30" as="geometry" />
        </mxCell>
        <mxCell id="3pbTkxTkRfntVXWtkhW5-103" value="last_model_trained: String" style="text;strokeColor=none;fillColor=none;align=left;verticalAlign=middle;spacingLeft=4;spacingRight=4;overflow=hidden;points=[[0,0.5],[1,0.5]];portConstraint=eastwest;rotatable=0;whiteSpace=wrap;html=1;" vertex="1" parent="3pbTkxTkRfntVXWtkhW5-93">
          <mxGeometry y="210" width="230" height="30" as="geometry" />
        </mxCell>
        <mxCell id="3pbTkxTkRfntVXWtkhW5-382" value="last_used_for_training: String" style="text;strokeColor=none;fillColor=none;align=left;verticalAlign=middle;spacingLeft=4;spacingRight=4;overflow=hidden;points=[[0,0.5],[1,0.5]];portConstraint=eastwest;rotatable=0;whiteSpace=wrap;html=1;" vertex="1" parent="3pbTkxTkRfntVXWtkhW5-93">
          <mxGeometry y="240" width="230" height="30" as="geometry" />
        </mxCell>
        <mxCell id="3pbTkxTkRfntVXWtkhW5-104" value="created_timestamp: Int" style="text;strokeColor=none;fillColor=none;align=left;verticalAlign=middle;spacingLeft=4;spacingRight=4;overflow=hidden;points=[[0,0.5],[1,0.5]];portConstraint=eastwest;rotatable=0;whiteSpace=wrap;html=1;" vertex="1" parent="3pbTkxTkRfntVXWtkhW5-93">
          <mxGeometry y="270" width="230" height="30" as="geometry" />
        </mxCell>
        <mxCell id="3pbTkxTkRfntVXWtkhW5-106" value="num_pages: Int" style="text;strokeColor=none;fillColor=none;align=left;verticalAlign=middle;spacingLeft=4;spacingRight=4;overflow=hidden;points=[[0,0.5],[1,0.5]];portConstraint=eastwest;rotatable=0;whiteSpace=wrap;html=1;" vertex="1" parent="3pbTkxTkRfntVXWtkhW5-93">
          <mxGeometry y="300" width="230" height="30" as="geometry" />
        </mxCell>
        <mxCell id="3pbTkxTkRfntVXWtkhW5-111" value="num_samples&lt;span style=&quot;background-color: initial;&quot;&gt;: Int&lt;/span&gt;" style="text;strokeColor=none;fillColor=none;align=left;verticalAlign=middle;spacingLeft=4;spacingRight=4;overflow=hidden;points=[[0,0.5],[1,0.5]];portConstraint=eastwest;rotatable=0;whiteSpace=wrap;html=1;" vertex="1" parent="3pbTkxTkRfntVXWtkhW5-93">
          <mxGeometry y="330" width="230" height="30" as="geometry" />
        </mxCell>
        <mxCell id="3pbTkxTkRfntVXWtkhW5-108" value="dataset_generation_errors: Object (JSON)" style="text;strokeColor=none;fillColor=none;align=left;verticalAlign=middle;spacingLeft=4;spacingRight=4;overflow=hidden;points=[[0,0.5],[1,0.5]];portConstraint=eastwest;rotatable=0;whiteSpace=wrap;html=1;" vertex="1" parent="3pbTkxTkRfntVXWtkhW5-93">
          <mxGeometry y="360" width="230" height="40" as="geometry" />
        </mxCell>
        <mxCell id="3pbTkxTkRfntVXWtkhW5-109" value="generated_data_available: Bool (True || False)" style="text;strokeColor=none;fillColor=none;align=left;verticalAlign=middle;spacingLeft=4;spacingRight=4;overflow=hidden;points=[[0,0.5],[1,0.5]];portConstraint=eastwest;rotatable=0;whiteSpace=wrap;html=1;" vertex="1" parent="3pbTkxTkRfntVXWtkhW5-93">
          <mxGeometry y="400" width="230" height="30" as="geometry" />
        </mxCell>
        <mxCell id="3pbTkxTkRfntVXWtkhW5-110" value="raw_data_available: Bool (True || False)" style="text;strokeColor=none;fillColor=none;align=left;verticalAlign=middle;spacingLeft=4;spacingRight=4;overflow=hidden;points=[[0,0.5],[1,0.5]];portConstraint=eastwest;rotatable=0;whiteSpace=wrap;html=1;" vertex="1" parent="3pbTkxTkRfntVXWtkhW5-93">
          <mxGeometry y="430" width="230" height="30" as="geometry" />
        </mxCell>
        <mxCell id="3pbTkxTkRfntVXWtkhW5-113" value="data_location: String (S3 Bucket URL)" style="text;strokeColor=none;fillColor=none;align=left;verticalAlign=middle;spacingLeft=4;spacingRight=4;overflow=hidden;points=[[0,0.5],[1,0.5]];portConstraint=eastwest;rotatable=0;whiteSpace=wrap;html=1;" vertex="1" parent="3pbTkxTkRfntVXWtkhW5-93">
          <mxGeometry y="460" width="230" height="30" as="geometry" />
        </mxCell>
        <mxCell id="3pbTkxTkRfntVXWtkhW5-116" value="connected_models: Object (JSON List)" style="text;strokeColor=none;fillColor=none;align=left;verticalAlign=middle;spacingLeft=4;spacingRight=4;overflow=hidden;points=[[0,0.5],[1,0.5]];portConstraint=eastwest;rotatable=0;whiteSpace=wrap;html=1;" vertex="1" parent="3pbTkxTkRfntVXWtkhW5-93">
          <mxGeometry y="490" width="230" height="30" as="geometry" />
        </mxCell>
        <mxCell id="3pbTkxTkRfntVXWtkhW5-117" style="edgeStyle=orthogonalEdgeStyle;rounded=0;orthogonalLoop=1;jettySize=auto;html=1;entryX=0.5;entryY=0;entryDx=0;entryDy=0;" edge="1" parent="1" source="3pbTkxTkRfntVXWtkhW5-118" target="3pbTkxTkRfntVXWtkhW5-93">
          <mxGeometry relative="1" as="geometry" />
        </mxCell>
        <mxCell id="3pbTkxTkRfntVXWtkhW5-118" value="" style="rounded=1;whiteSpace=wrap;html=1;strokeColor=#EA6B66;" vertex="1" parent="1">
          <mxGeometry x="1375.0000000000005" y="755.5999999999999" width="200" height="62" as="geometry" />
        </mxCell>
        <mxCell id="3pbTkxTkRfntVXWtkhW5-119" value="/resql/datamodel/update-datasetgroup-metadata" style="text;html=1;align=center;verticalAlign=middle;whiteSpace=wrap;rounded=0;" vertex="1" parent="1">
          <mxGeometry x="1379.48" y="773.98" width="190" height="25.25" as="geometry" />
        </mxCell>
        <mxCell id="3pbTkxTkRfntVXWtkhW5-120" value="" style="rounded=1;whiteSpace=wrap;html=1;" vertex="1" parent="1">
          <mxGeometry x="2132.5" y="489.5" width="235" height="60.87" as="geometry" />
        </mxCell>
        <mxCell id="3pbTkxTkRfntVXWtkhW5-121" value="/POST/deployment/testing/update&lt;div&gt;(Python Endpoint)&lt;/div&gt;" style="text;html=1;align=center;verticalAlign=middle;whiteSpace=wrap;rounded=0;" vertex="1" parent="1">
          <mxGeometry x="2150" y="508.93000000000006" width="195" height="20.19" as="geometry" />
        </mxCell>
        <mxCell id="3pbTkxTkRfntVXWtkhW5-122" value="" style="rounded=1;whiteSpace=wrap;html=1;" vertex="1" parent="1">
          <mxGeometry x="2134.5" y="659.1299999999999" width="235" height="60.87" as="geometry" />
        </mxCell>
        <mxCell id="3pbTkxTkRfntVXWtkhW5-123" value="&lt;div&gt;/POST/deployment/production/update&lt;/div&gt;&lt;div&gt;(Python Endpoint)&lt;/div&gt;" style="text;html=1;align=center;verticalAlign=middle;whiteSpace=wrap;rounded=0;" vertex="1" parent="1">
          <mxGeometry x="2152" y="678.56" width="195" height="20.19" as="geometry" />
        </mxCell>
        <mxCell id="3pbTkxTkRfntVXWtkhW5-129" value="" style="rounded=1;whiteSpace=wrap;html=1;" vertex="1" parent="1">
          <mxGeometry x="1510" y="367.09" width="230" height="58.75" as="geometry" />
        </mxCell>
        <mxCell id="3pbTkxTkRfntVXWtkhW5-130" style="edgeStyle=orthogonalEdgeStyle;rounded=0;orthogonalLoop=1;jettySize=auto;html=1;entryX=1;entryY=0.5;entryDx=0;entryDy=0;" edge="1" parent="1" source="3pbTkxTkRfntVXWtkhW5-131" target="3pbTkxTkRfntVXWtkhW5-134">
          <mxGeometry relative="1" as="geometry" />
        </mxCell>
        <mxCell id="3pbTkxTkRfntVXWtkhW5-131" value="/POST/datamodel/update/training/status" style="text;html=1;align=center;verticalAlign=middle;whiteSpace=wrap;rounded=0;" vertex="1" parent="1">
          <mxGeometry x="1510" y="379.59" width="230" height="33.75" as="geometry" />
        </mxCell>
        <mxCell id="3pbTkxTkRfntVXWtkhW5-133" value="" style="rounded=1;whiteSpace=wrap;html=1;" vertex="1" parent="1">
          <mxGeometry x="1230" y="367.09" width="230" height="58.75" as="geometry" />
        </mxCell>
        <mxCell id="3pbTkxTkRfntVXWtkhW5-134" value="/resql/datamodel/update-training-status" style="text;html=1;align=center;verticalAlign=middle;whiteSpace=wrap;rounded=0;" vertex="1" parent="1">
          <mxGeometry x="1230" y="379.59" width="230" height="33.75" as="geometry" />
        </mxCell>
        <mxCell id="3pbTkxTkRfntVXWtkhW5-135" style="edgeStyle=orthogonalEdgeStyle;rounded=0;orthogonalLoop=1;jettySize=auto;html=1;entryX=0.5;entryY=1;entryDx=0;entryDy=0;" edge="1" parent="1" source="3pbTkxTkRfntVXWtkhW5-136" target="3pbTkxTkRfntVXWtkhW5-159">
          <mxGeometry relative="1" as="geometry" />
        </mxCell>
        <mxCell id="3pbTkxTkRfntVXWtkhW5-136" value="" style="rounded=1;whiteSpace=wrap;html=1;arcSize=15;" vertex="1" parent="1">
          <mxGeometry x="3300" y="-204.75" width="260.01" height="163.75" as="geometry" />
        </mxCell>
        <mxCell id="3pbTkxTkRfntVXWtkhW5-137" value="" style="rounded=1;whiteSpace=wrap;html=1;arcSize=12;" vertex="1" parent="1">
          <mxGeometry x="3010" y="-4.049999999999972" width="184.47" height="142.55" as="geometry" />
        </mxCell>
        <mxCell id="3pbTkxTkRfntVXWtkhW5-138" value="" style="image;sketch=0;aspect=fixed;html=1;points=[];align=center;fontSize=12;image=img/lib/mscae/Shared_Dashboard.svg;" vertex="1" parent="1">
          <mxGeometry x="3050.09" y="6.249999999999979" width="102.44" height="84" as="geometry" />
        </mxCell>
        <mxCell id="3pbTkxTkRfntVXWtkhW5-139" value="Data Models Sessions Progress Bar Interface" style="text;html=1;align=center;verticalAlign=middle;whiteSpace=wrap;rounded=0;" vertex="1" parent="1">
          <mxGeometry x="3032.4399999999996" y="99.25" width="139.58" height="33.5" as="geometry" />
        </mxCell>
        <mxCell id="3pbTkxTkRfntVXWtkhW5-140" value="ModelProgressSessions" style="swimlane;fontStyle=0;childLayout=stackLayout;horizontal=1;startSize=30;horizontalStack=0;resizeParent=1;resizeParentMax=0;resizeLast=0;collapsible=1;marginBottom=0;whiteSpace=wrap;html=1;" vertex="1" parent="1">
          <mxGeometry x="2630" y="-441" width="230" height="330" as="geometry" />
        </mxCell>
        <mxCell id="3pbTkxTkRfntVXWtkhW5-141" value="sessionid: String" style="text;strokeColor=none;fillColor=none;align=left;verticalAlign=middle;spacingLeft=4;spacingRight=4;overflow=hidden;points=[[0,0.5],[1,0.5]];portConstraint=eastwest;rotatable=0;whiteSpace=wrap;html=1;" vertex="1" parent="3pbTkxTkRfntVXWtkhW5-140">
          <mxGeometry y="30" width="230" height="30" as="geometry" />
        </mxCell>
        <mxCell id="3pbTkxTkRfntVXWtkhW5-142" value="model_id: Int" style="text;strokeColor=none;fillColor=none;align=left;verticalAlign=middle;spacingLeft=4;spacingRight=4;overflow=hidden;points=[[0,0.5],[1,0.5]];portConstraint=eastwest;rotatable=0;whiteSpace=wrap;html=1;" vertex="1" parent="3pbTkxTkRfntVXWtkhW5-140">
          <mxGeometry y="60" width="230" height="30" as="geometry" />
        </mxCell>
        <mxCell id="3pbTkxTkRfntVXWtkhW5-143" value="model_name: Int" style="text;strokeColor=none;fillColor=none;align=left;verticalAlign=middle;spacingLeft=4;spacingRight=4;overflow=hidden;points=[[0,0.5],[1,0.5]];portConstraint=eastwest;rotatable=0;whiteSpace=wrap;html=1;" vertex="1" parent="3pbTkxTkRfntVXWtkhW5-140">
          <mxGeometry y="90" width="230" height="30" as="geometry" />
        </mxCell>
        <mxCell id="3pbTkxTkRfntVXWtkhW5-144" value="model_major_version: Int" style="text;strokeColor=none;fillColor=none;align=left;verticalAlign=middle;spacingLeft=4;spacingRight=4;overflow=hidden;points=[[0,0.5],[1,0.5]];portConstraint=eastwest;rotatable=0;whiteSpace=wrap;html=1;" vertex="1" parent="3pbTkxTkRfntVXWtkhW5-140">
          <mxGeometry y="120" width="230" height="30" as="geometry" />
        </mxCell>
        <mxCell id="3pbTkxTkRfntVXWtkhW5-145" value="model_minor_version&lt;span style=&quot;background-color: initial;&quot;&gt;: Int&lt;/span&gt;" style="text;strokeColor=none;fillColor=none;align=left;verticalAlign=middle;spacingLeft=4;spacingRight=4;overflow=hidden;points=[[0,0.5],[1,0.5]];portConstraint=eastwest;rotatable=0;whiteSpace=wrap;html=1;" vertex="1" parent="3pbTkxTkRfntVXWtkhW5-140">
          <mxGeometry y="150" width="230" height="30" as="geometry" />
        </mxCell>
        <mxCell id="3pbTkxTkRfntVXWtkhW5-146" value="latest: Bool" style="text;strokeColor=none;fillColor=none;align=left;verticalAlign=middle;spacingLeft=4;spacingRight=4;overflow=hidden;points=[[0,0.5],[1,0.5]];portConstraint=eastwest;rotatable=0;whiteSpace=wrap;html=1;" vertex="1" parent="3pbTkxTkRfntVXWtkhW5-140">
          <mxGeometry y="180" width="230" height="30" as="geometry" />
        </mxCell>
        <mxCell id="3pbTkxTkRfntVXWtkhW5-147" value="process_complete: Bool" style="text;strokeColor=none;fillColor=none;align=left;verticalAlign=middle;spacingLeft=4;spacingRight=4;overflow=hidden;points=[[0,0.5],[1,0.5]];portConstraint=eastwest;rotatable=0;whiteSpace=wrap;html=1;" vertex="1" parent="3pbTkxTkRfntVXWtkhW5-140">
          <mxGeometry y="210" width="230" height="30" as="geometry" />
        </mxCell>
        <mxCell id="3pbTkxTkRfntVXWtkhW5-148" value="progress_percentage: Int" style="text;strokeColor=none;fillColor=none;align=left;verticalAlign=middle;spacingLeft=4;spacingRight=4;overflow=hidden;points=[[0,0.5],[1,0.5]];portConstraint=eastwest;rotatable=0;whiteSpace=wrap;html=1;" vertex="1" parent="3pbTkxTkRfntVXWtkhW5-140">
          <mxGeometry y="240" width="230" height="30" as="geometry" />
        </mxCell>
        <mxCell id="3pbTkxTkRfntVXWtkhW5-149" value="training_status: ENUM(&quot;Initiating Training&quot;, &quot;Training In-Progress&quot;,&amp;nbsp; &quot;Deploying Model&quot;, &quot;Model Trained And Deployed&quot;)&amp;nbsp;" style="text;strokeColor=none;fillColor=none;align=left;verticalAlign=middle;spacingLeft=4;spacingRight=4;overflow=hidden;points=[[0,0.5],[1,0.5]];portConstraint=eastwest;rotatable=0;whiteSpace=wrap;html=1;" vertex="1" parent="3pbTkxTkRfntVXWtkhW5-140">
          <mxGeometry y="270" width="230" height="60" as="geometry" />
        </mxCell>
        <mxCell id="3pbTkxTkRfntVXWtkhW5-150" style="edgeStyle=orthogonalEdgeStyle;rounded=0;orthogonalLoop=1;jettySize=auto;html=1;entryX=0.5;entryY=1;entryDx=0;entryDy=0;" edge="1" parent="1" source="3pbTkxTkRfntVXWtkhW5-151" target="3pbTkxTkRfntVXWtkhW5-153">
          <mxGeometry relative="1" as="geometry" />
        </mxCell>
        <mxCell id="3pbTkxTkRfntVXWtkhW5-151" value="" style="rounded=1;whiteSpace=wrap;html=1;" vertex="1" parent="1">
          <mxGeometry x="2980" y="-145.5" width="260.01" height="64.5" as="geometry" />
        </mxCell>
        <mxCell id="3pbTkxTkRfntVXWtkhW5-152" value="/GET/datamodel/progress" style="text;html=1;align=center;verticalAlign=middle;whiteSpace=wrap;rounded=0;" vertex="1" parent="1">
          <mxGeometry x="2995" y="-128.25" width="220" height="30" as="geometry" />
        </mxCell>
        <mxCell id="3pbTkxTkRfntVXWtkhW5-153" value="" style="rounded=1;whiteSpace=wrap;html=1;" vertex="1" parent="1">
          <mxGeometry x="2980" y="-261" width="260.01" height="64.5" as="geometry" />
        </mxCell>
        <mxCell id="3pbTkxTkRfntVXWtkhW5-154" style="edgeStyle=orthogonalEdgeStyle;rounded=0;orthogonalLoop=1;jettySize=auto;html=1;entryX=1;entryY=0.5;entryDx=0;entryDy=0;" edge="1" parent="1" target="3pbTkxTkRfntVXWtkhW5-145">
          <mxGeometry relative="1" as="geometry">
            <mxPoint x="3110" y="-261" as="sourcePoint" />
            <Array as="points">
              <mxPoint x="3110" y="-276" />
            </Array>
          </mxGeometry>
        </mxCell>
        <mxCell id="3pbTkxTkRfntVXWtkhW5-155" value="/resql/get-datamodel-progress-session" style="text;html=1;align=center;verticalAlign=middle;whiteSpace=wrap;rounded=0;" vertex="1" parent="1">
          <mxGeometry x="3000.01" y="-243" width="220" height="30" as="geometry" />
        </mxCell>
        <mxCell id="3pbTkxTkRfntVXWtkhW5-156" value="" style="rounded=1;whiteSpace=wrap;html=1;" vertex="1" parent="1">
          <mxGeometry x="2954.99" y="-391" width="260.01" height="64.5" as="geometry" />
        </mxCell>
        <mxCell id="3pbTkxTkRfntVXWtkhW5-157" value="/resql/delete-dataset-progress-session" style="text;html=1;align=center;verticalAlign=middle;whiteSpace=wrap;rounded=0;" vertex="1" parent="1">
          <mxGeometry x="2975" y="-373" width="220" height="30" as="geometry" />
        </mxCell>
        <mxCell id="3pbTkxTkRfntVXWtkhW5-158" style="edgeStyle=orthogonalEdgeStyle;rounded=0;orthogonalLoop=1;jettySize=auto;html=1;entryX=1;entryY=0.5;entryDx=0;entryDy=0;" edge="1" parent="1" source="3pbTkxTkRfntVXWtkhW5-159" target="3pbTkxTkRfntVXWtkhW5-156">
          <mxGeometry relative="1" as="geometry" />
        </mxCell>
        <mxCell id="3pbTkxTkRfntVXWtkhW5-159" value="" style="rounded=1;whiteSpace=wrap;html=1;" vertex="1" parent="1">
          <mxGeometry x="3300" y="-391" width="260.01" height="64.5" as="geometry" />
        </mxCell>
        <mxCell id="3pbTkxTkRfntVXWtkhW5-160" value="/POST/datasetgroup/progress/delete" style="text;html=1;align=center;verticalAlign=middle;whiteSpace=wrap;rounded=0;" vertex="1" parent="1">
          <mxGeometry x="3315" y="-373.75" width="220" height="30" as="geometry" />
        </mxCell>
        <mxCell id="3pbTkxTkRfntVXWtkhW5-161" value="" style="editableCssRules=.*;html=1;shape=image;verticalLabelPosition=bottom;labelBackgroundColor=#ffffff;verticalAlign=top;aspect=fixed;imageAspect=0;image=data:image/svg+xml,PHN2ZyB4bWxucz0iaHR0cDovL3d3dy53My5vcmcvMjAwMC9zdmciIHhtbG5zOnY9Imh0dHBzOi8vdmVjdGEuaW8vbmFubyIgd2lkdGg9IjM3NS44NTAyODQ2NDQwODg3MyIgaGVpZ2h0PSIzNTMuODA1Nzc3NDY3NzY5NyIgdmlld0JveD0iMC4yNTU5OTk1NjUxMjQ1MTE3IDAuNDI2MDAwMDI4ODQ4NjQ4MDcgOTkuNDQzNjU2OTIxMzg2NzIgOTMuNjExMDAwMDYxMDM1MTYiPiYjeGE7PHN0eWxlIHR5cGU9InRleHQvY3NzIj4mI3hhOwkuc3Qwe2ZpbGw6I2FlY2JmYTt9JiN4YTsJLnN0MXtmaWxsOiNmZmY7fSYjeGE7CS5zdDJ7ZmlsbDojNDI4NWY0O30mI3hhOwkuc3Qze2ZpbGw6IzY2OWRmNjt9JiN4YTs8L3N0eWxlPiYjeGE7CTxwYXRoIGNsYXNzPSJzdDAiIGQ9Ik04LjU0NCA3MS45MjhjLTQuODE1IDAtOC4yODgtMy44ODktOC4yODgtOC4zMjdWNy45ODNDLjI1NyA0LjY1IDQuMDcyLjQyNiA3LjQ5NS40MjZoODMuOTUyYzQuNzA1IDAgOC4yNTIgMy4zNzkgOC4yNTIgOC4xNzR2NTEuNDk1Yy4wNDcgNy41OTUtMi40NyAxMS44MzQtOS4wMTIgMTEuODM0eiIvPiYjeGE7CTxwYXRoIGNsYXNzPSJzdDEiIGQ9Ik0yOC4wNDYgNTcuMTV2LTkuOTIybDMxLjg4Mi0xMy44OTEtMzEuODgyLTEzLjY5MlY5LjI2MWw0NS44MDYgMTguOTg0djkuNzl6bTI1LjIzNSAzLjY3MXYtMTAuNTVoMjAuMDc1djEwLjU1eiIvPiYjeGE7CTxwYXRoIGNsYXNzPSJzdDIiIGQ9Ik00MC4wMyA4My41MjRWNzEuOTI4aDIwLjI5NXYxMS41OTZ6Ii8+JiN4YTsJPHBhdGggY2xhc3M9InN0MyIgZD0iTTY5Ljg3MyA4My41MjR2MTAuNTEzSDMwLjFWODMuNTI0eiIvPiYjeGE7PC9zdmc+;" vertex="1" parent="1">
          <mxGeometry x="3384.2099999999996" y="-184" width="95.78" height="90.99" as="geometry" />
        </mxCell>
        <mxCell id="3pbTkxTkRfntVXWtkhW5-162" value="delete-datamodel-progress-sessions.sh" style="text;html=1;align=center;verticalAlign=middle;whiteSpace=wrap;rounded=0;" vertex="1" parent="1">
          <mxGeometry x="3314.21" y="-84.45000000000006" width="220" height="30" as="geometry" />
        </mxCell>
        <mxCell id="3pbTkxTkRfntVXWtkhW5-163" value="" style="rounded=1;whiteSpace=wrap;html=1;" vertex="1" parent="1">
          <mxGeometry x="2599.9900000000002" y="41.75" width="260.01" height="64.5" as="geometry" />
        </mxCell>
        <mxCell id="3pbTkxTkRfntVXWtkhW5-164" value="/notifications-node/datamodel/progress-update" style="text;html=1;align=center;verticalAlign=middle;whiteSpace=wrap;rounded=0;" vertex="1" parent="1">
          <mxGeometry x="2614.9900000000002" y="59" width="220" height="30" as="geometry" />
        </mxCell>
        <mxCell id="3pbTkxTkRfntVXWtkhW5-165" style="edgeStyle=orthogonalEdgeStyle;rounded=0;orthogonalLoop=1;jettySize=auto;html=1;entryX=0;entryY=0.5;entryDx=0;entryDy=0;" edge="1" parent="1" source="3pbTkxTkRfntVXWtkhW5-166" target="3pbTkxTkRfntVXWtkhW5-163">
          <mxGeometry relative="1" as="geometry" />
        </mxCell>
        <mxCell id="3pbTkxTkRfntVXWtkhW5-166" value="" style="rounded=1;whiteSpace=wrap;html=1;" vertex="1" parent="1">
          <mxGeometry x="2257.5" y="41.75000000000006" width="260.01" height="64.5" as="geometry" />
        </mxCell>
        <mxCell id="3pbTkxTkRfntVXWtkhW5-167" value="/POST/datamodel/notification/update" style="text;html=1;align=center;verticalAlign=middle;whiteSpace=wrap;rounded=0;" vertex="1" parent="1">
          <mxGeometry x="2276.26" y="60.92000000000007" width="222.49" height="26.16" as="geometry" />
        </mxCell>
        <mxCell id="3pbTkxTkRfntVXWtkhW5-168" style="edgeStyle=orthogonalEdgeStyle;rounded=0;orthogonalLoop=1;jettySize=auto;html=1;entryX=0.01;entryY=0.546;entryDx=0;entryDy=0;entryPerimeter=0;" edge="1" parent="1" source="3pbTkxTkRfntVXWtkhW5-163" target="3pbTkxTkRfntVXWtkhW5-137">
          <mxGeometry relative="1" as="geometry" />
        </mxCell>
        <mxCell id="3pbTkxTkRfntVXWtkhW5-169" style="edgeStyle=orthogonalEdgeStyle;rounded=0;orthogonalLoop=1;jettySize=auto;html=1;entryX=0.48;entryY=0.991;entryDx=0;entryDy=0;entryPerimeter=0;" edge="1" parent="1" source="3pbTkxTkRfntVXWtkhW5-170" target="3pbTkxTkRfntVXWtkhW5-172">
          <mxGeometry relative="1" as="geometry">
            <mxPoint x="2340.0049999999997" y="-272.75" as="targetPoint" />
          </mxGeometry>
        </mxCell>
        <mxCell id="3pbTkxTkRfntVXWtkhW5-170" value="" style="rounded=1;whiteSpace=wrap;html=1;" vertex="1" parent="1">
          <mxGeometry x="2210" y="-192.75" width="260.01" height="64.5" as="geometry" />
        </mxCell>
        <mxCell id="3pbTkxTkRfntVXWtkhW5-171" value="/POST/datamodel/progress/create" style="text;html=1;align=center;verticalAlign=middle;whiteSpace=wrap;rounded=0;" vertex="1" parent="1">
          <mxGeometry x="2230" y="-175.5" width="220" height="30" as="geometry" />
        </mxCell>
        <mxCell id="3pbTkxTkRfntVXWtkhW5-172" value="" style="rounded=1;whiteSpace=wrap;html=1;" vertex="1" parent="1">
          <mxGeometry x="2214.9900000000002" y="-350.91" width="260.01" height="64.5" as="geometry" />
        </mxCell>
        <mxCell id="3pbTkxTkRfntVXWtkhW5-173" value="/resql/create-dataset-progress-session" style="text;html=1;align=center;verticalAlign=middle;whiteSpace=wrap;rounded=0;" vertex="1" parent="1">
          <mxGeometry x="2235" y="-333.66" width="220" height="30" as="geometry" />
        </mxCell>
        <mxCell id="3pbTkxTkRfntVXWtkhW5-174" style="edgeStyle=orthogonalEdgeStyle;rounded=0;orthogonalLoop=1;jettySize=auto;html=1;" edge="1" parent="1">
          <mxGeometry relative="1" as="geometry">
            <mxPoint x="2064.98" y="367.09" as="sourcePoint" />
            <mxPoint x="2214.98" y="-162.33857142857156" as="targetPoint" />
            <Array as="points">
              <mxPoint x="2134.98" y="367.09" />
            </Array>
          </mxGeometry>
        </mxCell>
        <mxCell id="3pbTkxTkRfntVXWtkhW5-175" style="edgeStyle=orthogonalEdgeStyle;rounded=0;orthogonalLoop=1;jettySize=auto;html=1;entryX=-0.043;entryY=0.075;entryDx=0;entryDy=0;entryPerimeter=0;" edge="1" parent="1" source="3pbTkxTkRfntVXWtkhW5-172" target="3pbTkxTkRfntVXWtkhW5-144">
          <mxGeometry relative="1" as="geometry" />
        </mxCell>
        <mxCell id="3pbTkxTkRfntVXWtkhW5-176" style="edgeStyle=orthogonalEdgeStyle;rounded=0;orthogonalLoop=1;jettySize=auto;html=1;entryX=0;entryY=0.5;entryDx=0;entryDy=0;" edge="1" parent="1" source="3pbTkxTkRfntVXWtkhW5-177" target="3pbTkxTkRfntVXWtkhW5-180">
          <mxGeometry relative="1" as="geometry" />
        </mxCell>
        <mxCell id="3pbTkxTkRfntVXWtkhW5-177" value="" style="rounded=1;whiteSpace=wrap;html=1;" vertex="1" parent="1">
          <mxGeometry x="2257.5" y="-68.54999999999994" width="260.01" height="64.5" as="geometry" />
        </mxCell>
        <mxCell id="3pbTkxTkRfntVXWtkhW5-178" value="/POST/datamodel/notification/update" style="text;html=1;align=center;verticalAlign=middle;whiteSpace=wrap;rounded=0;" vertex="1" parent="1">
          <mxGeometry x="2276.26" y="-49.379999999999924" width="222.49" height="26.16" as="geometry" />
        </mxCell>
        <mxCell id="3pbTkxTkRfntVXWtkhW5-179" style="edgeStyle=orthogonalEdgeStyle;rounded=0;orthogonalLoop=1;jettySize=auto;html=1;entryX=1;entryY=0.5;entryDx=0;entryDy=0;exitX=1;exitY=0.5;exitDx=0;exitDy=0;" edge="1" parent="1" source="3pbTkxTkRfntVXWtkhW5-180" target="3pbTkxTkRfntVXWtkhW5-149">
          <mxGeometry relative="1" as="geometry" />
        </mxCell>
        <mxCell id="3pbTkxTkRfntVXWtkhW5-180" value="" style="rounded=1;whiteSpace=wrap;html=1;" vertex="1" parent="1">
          <mxGeometry x="2610.63" y="-41" width="260.01" height="64.5" as="geometry" />
        </mxCell>
        <mxCell id="3pbTkxTkRfntVXWtkhW5-181" value="/resql/update-dataset-progress-session" style="text;html=1;align=center;verticalAlign=middle;whiteSpace=wrap;rounded=0;" vertex="1" parent="1">
          <mxGeometry x="2630.64" y="-23.75" width="220" height="30" as="geometry" />
        </mxCell>
        <mxCell id="3pbTkxTkRfntVXWtkhW5-182" style="edgeStyle=orthogonalEdgeStyle;rounded=0;orthogonalLoop=1;jettySize=auto;html=1;entryX=0.469;entryY=1.038;entryDx=0;entryDy=0;entryPerimeter=0;" edge="1" parent="1" source="3pbTkxTkRfntVXWtkhW5-137" target="3pbTkxTkRfntVXWtkhW5-151">
          <mxGeometry relative="1" as="geometry" />
        </mxCell>
        <mxCell id="3pbTkxTkRfntVXWtkhW5-183" style="edgeStyle=orthogonalEdgeStyle;rounded=0;orthogonalLoop=1;jettySize=auto;html=1;entryX=0.995;entryY=0.733;entryDx=0;entryDy=0;entryPerimeter=0;" edge="1" parent="1" source="3pbTkxTkRfntVXWtkhW5-156" target="3pbTkxTkRfntVXWtkhW5-142">
          <mxGeometry relative="1" as="geometry" />
        </mxCell>
        <mxCell id="3pbTkxTkRfntVXWtkhW5-197" style="edgeStyle=orthogonalEdgeStyle;rounded=0;orthogonalLoop=1;jettySize=auto;html=1;entryX=0.5;entryY=1;entryDx=0;entryDy=0;" edge="1" parent="1" source="3pbTkxTkRfntVXWtkhW5-198" target="3pbTkxTkRfntVXWtkhW5-200">
          <mxGeometry relative="1" as="geometry" />
        </mxCell>
        <mxCell id="3pbTkxTkRfntVXWtkhW5-198" value="" style="rounded=1;whiteSpace=wrap;html=1;" vertex="1" parent="1">
          <mxGeometry x="1859.98" y="-114.46" width="260.01" height="62" as="geometry" />
        </mxCell>
        <mxCell id="3pbTkxTkRfntVXWtkhW5-199" value="/POST/model/delete" style="text;html=1;align=center;verticalAlign=middle;whiteSpace=wrap;rounded=0;" vertex="1" parent="1">
          <mxGeometry x="1874.9900000000002" y="-98.46" width="230" height="30" as="geometry" />
        </mxCell>
        <mxCell id="3pbTkxTkRfntVXWtkhW5-200" value="" style="rounded=1;whiteSpace=wrap;html=1;" vertex="1" parent="1">
          <mxGeometry x="1859.9899999999998" y="-260.25" width="260.01" height="64.5" as="geometry" />
        </mxCell>
        <mxCell id="3pbTkxTkRfntVXWtkhW5-201" value="/POST/cronmanager/execute/&lt;div&gt;dataset_processing/dataset_deletion&lt;/div&gt;" style="text;html=1;align=center;verticalAlign=middle;whiteSpace=wrap;rounded=0;" vertex="1" parent="1">
          <mxGeometry x="1874.9899999999998" y="-243" width="220" height="30" as="geometry" />
        </mxCell>
        <mxCell id="3pbTkxTkRfntVXWtkhW5-203" style="edgeStyle=orthogonalEdgeStyle;rounded=0;orthogonalLoop=1;jettySize=auto;html=1;exitX=0.5;exitY=0;exitDx=0;exitDy=0;entryX=1;entryY=0.5;entryDx=0;entryDy=0;" edge="1" parent="1" source="3pbTkxTkRfntVXWtkhW5-209" target="3pbTkxTkRfntVXWtkhW5-215">
          <mxGeometry relative="1" as="geometry">
            <Array as="points">
              <mxPoint x="2030" y="-441" />
              <mxPoint x="2030" y="-665" />
            </Array>
          </mxGeometry>
        </mxCell>
        <mxCell id="3pbTkxTkRfntVXWtkhW5-204" style="edgeStyle=orthogonalEdgeStyle;rounded=0;orthogonalLoop=1;jettySize=auto;html=1;exitX=0.5;exitY=0;exitDx=0;exitDy=0;entryX=1;entryY=0.5;entryDx=0;entryDy=0;" edge="1" parent="1" source="3pbTkxTkRfntVXWtkhW5-209" target="3pbTkxTkRfntVXWtkhW5-217">
          <mxGeometry relative="1" as="geometry">
            <Array as="points">
              <mxPoint x="2030" y="-441" />
              <mxPoint x="2030" y="-566" />
            </Array>
          </mxGeometry>
        </mxCell>
        <mxCell id="3pbTkxTkRfntVXWtkhW5-206" style="edgeStyle=orthogonalEdgeStyle;rounded=0;orthogonalLoop=1;jettySize=auto;html=1;exitX=0;exitY=0.25;exitDx=0;exitDy=0;entryX=0.5;entryY=0;entryDx=0;entryDy=0;" edge="1" parent="1" source="3pbTkxTkRfntVXWtkhW5-209" target="3pbTkxTkRfntVXWtkhW5-331">
          <mxGeometry relative="1" as="geometry" />
        </mxCell>
        <mxCell id="3pbTkxTkRfntVXWtkhW5-207" style="edgeStyle=orthogonalEdgeStyle;rounded=0;orthogonalLoop=1;jettySize=auto;html=1;entryX=1;entryY=0.5;entryDx=0;entryDy=0;" edge="1" parent="1" source="3pbTkxTkRfntVXWtkhW5-209" target="3pbTkxTkRfntVXWtkhW5-224">
          <mxGeometry relative="1" as="geometry">
            <Array as="points">
              <mxPoint x="2004" y="-280" />
              <mxPoint x="1832" y="-280" />
              <mxPoint x="1832" y="-123" />
            </Array>
          </mxGeometry>
        </mxCell>
        <mxCell id="3pbTkxTkRfntVXWtkhW5-208" style="edgeStyle=orthogonalEdgeStyle;rounded=0;orthogonalLoop=1;jettySize=auto;html=1;exitX=0;exitY=0.25;exitDx=0;exitDy=0;entryX=0.5;entryY=0;entryDx=0;entryDy=0;" edge="1" parent="1" source="3pbTkxTkRfntVXWtkhW5-209" target="3pbTkxTkRfntVXWtkhW5-338">
          <mxGeometry relative="1" as="geometry" />
        </mxCell>
        <mxCell id="3pbTkxTkRfntVXWtkhW5-209" value="" style="rounded=1;whiteSpace=wrap;html=1;" vertex="1" parent="1">
          <mxGeometry x="1928.8600000000001" y="-441" width="150" height="136" as="geometry" />
        </mxCell>
        <mxCell id="3pbTkxTkRfntVXWtkhW5-210" value="" style="shape=image;html=1;verticalAlign=top;verticalLabelPosition=bottom;labelBackgroundColor=#ffffff;imageAspect=0;aspect=fixed;image=https://cdn1.iconfinder.com/data/icons/ionicons-fill-vol-2/512/logo-python-128.png;imageBackground=none;" vertex="1" parent="1">
          <mxGeometry x="1973.8600000000001" y="-413.90999999999997" width="61.5" height="61.5" as="geometry" />
        </mxCell>
        <mxCell id="3pbTkxTkRfntVXWtkhW5-211" value="model_deletor.py" style="text;html=1;align=center;verticalAlign=middle;whiteSpace=wrap;rounded=0;" vertex="1" parent="1">
          <mxGeometry x="1943.19" y="-350.90999999999997" width="130" height="21.82" as="geometry" />
        </mxCell>
        <mxCell id="3pbTkxTkRfntVXWtkhW5-212" style="edgeStyle=orthogonalEdgeStyle;rounded=0;orthogonalLoop=1;jettySize=auto;html=1;entryX=0.457;entryY=0.996;entryDx=0;entryDy=0;entryPerimeter=0;" edge="1" parent="1" source="3pbTkxTkRfntVXWtkhW5-38" target="3pbTkxTkRfntVXWtkhW5-198">
          <mxGeometry relative="1" as="geometry" />
        </mxCell>
        <mxCell id="3pbTkxTkRfntVXWtkhW5-215" value="" style="rounded=1;whiteSpace=wrap;html=1;" vertex="1" parent="1">
          <mxGeometry x="1622.48" y="-695.44" width="235" height="60.87" as="geometry" />
        </mxCell>
        <mxCell id="3pbTkxTkRfntVXWtkhW5-216" value="/POST/deployment/production/delete&amp;nbsp;&lt;div&gt;(Python Endpoint)&lt;/div&gt;" style="text;html=1;align=center;verticalAlign=middle;whiteSpace=wrap;rounded=0;" vertex="1" parent="1">
          <mxGeometry x="1639.98" y="-676.01" width="195" height="20.19" as="geometry" />
        </mxCell>
        <mxCell id="3pbTkxTkRfntVXWtkhW5-217" value="" style="rounded=1;whiteSpace=wrap;html=1;" vertex="1" parent="1">
          <mxGeometry x="1624.98" y="-596.8700000000001" width="235" height="60.87" as="geometry" />
        </mxCell>
        <mxCell id="3pbTkxTkRfntVXWtkhW5-218" value="/POST/deployment/test/delete&amp;nbsp;&lt;div&gt;(Python Endpoint)&lt;/div&gt;" style="text;html=1;align=center;verticalAlign=middle;whiteSpace=wrap;rounded=0;" vertex="1" parent="1">
          <mxGeometry x="1642.48" y="-577.44" width="195" height="20.19" as="geometry" />
        </mxCell>
        <mxCell id="3pbTkxTkRfntVXWtkhW5-221" style="edgeStyle=orthogonalEdgeStyle;rounded=0;orthogonalLoop=1;jettySize=auto;html=1;entryX=0.411;entryY=0.995;entryDx=0;entryDy=0;entryPerimeter=0;" edge="1" parent="1" source="3pbTkxTkRfntVXWtkhW5-200" target="3pbTkxTkRfntVXWtkhW5-209">
          <mxGeometry relative="1" as="geometry" />
        </mxCell>
        <mxCell id="3pbTkxTkRfntVXWtkhW5-380" style="edgeStyle=orthogonalEdgeStyle;rounded=0;orthogonalLoop=1;jettySize=auto;html=1;entryX=0.5;entryY=0;entryDx=0;entryDy=0;" edge="1" parent="1" source="3pbTkxTkRfntVXWtkhW5-224" target="3pbTkxTkRfntVXWtkhW5-15">
          <mxGeometry relative="1" as="geometry">
            <Array as="points">
              <mxPoint x="1302" y="-130" />
              <mxPoint x="1302" y="-126" />
              <mxPoint x="1015" y="-126" />
            </Array>
          </mxGeometry>
        </mxCell>
        <mxCell id="3pbTkxTkRfntVXWtkhW5-224" value="" style="rounded=1;whiteSpace=wrap;html=1;" vertex="1" parent="1">
          <mxGeometry x="1475" y="-153.87" width="260.01" height="62" as="geometry" />
        </mxCell>
        <mxCell id="3pbTkxTkRfntVXWtkhW5-225" value="/resql/datamodel/delete" style="text;html=1;align=center;verticalAlign=middle;whiteSpace=wrap;rounded=0;" vertex="1" parent="1">
          <mxGeometry x="1490" y="-133.12" width="230.01" height="25.25" as="geometry" />
        </mxCell>
        <mxCell id="3pbTkxTkRfntVXWtkhW5-226" style="edgeStyle=orthogonalEdgeStyle;rounded=0;orthogonalLoop=1;jettySize=auto;html=1;entryX=1;entryY=0.5;entryDx=0;entryDy=0;" edge="1" parent="1" source="3pbTkxTkRfntVXWtkhW5-227" target="3pbTkxTkRfntVXWtkhW5-326">
          <mxGeometry relative="1" as="geometry" />
        </mxCell>
        <mxCell id="3pbTkxTkRfntVXWtkhW5-227" value="" style="rounded=1;whiteSpace=wrap;html=1;strokeColor=#CC0066;" vertex="1" parent="1">
          <mxGeometry x="1793.19" y="519.0000000000001" width="150" height="136" as="geometry" />
        </mxCell>
        <mxCell id="3pbTkxTkRfntVXWtkhW5-228" value="" style="shape=image;html=1;verticalAlign=top;verticalLabelPosition=bottom;labelBackgroundColor=#ffffff;imageAspect=0;aspect=fixed;image=https://cdn1.iconfinder.com/data/icons/ionicons-fill-vol-2/512/logo-python-128.png;strokeColor=#CC0066;perimeterSpacing=5;imageBackground=none;" vertex="1" parent="1">
          <mxGeometry x="1837.44" y="535.25" width="61.5" height="61.5" as="geometry" />
        </mxCell>
        <mxCell id="3pbTkxTkRfntVXWtkhW5-230" value="dataset_deletor.py" style="text;html=1;align=center;verticalAlign=middle;whiteSpace=wrap;rounded=0;strokeColor=none;" vertex="1" parent="1">
          <mxGeometry x="1803.19" y="599.26" width="130" height="30.46" as="geometry" />
        </mxCell>
        <mxCell id="3pbTkxTkRfntVXWtkhW5-231" value="" style="rounded=1;whiteSpace=wrap;html=1;strokeColor=#EA6B66;" vertex="1" parent="1">
          <mxGeometry x="1565" y="445.09000000000003" width="230" height="70" as="geometry" />
        </mxCell>
        <mxCell id="3pbTkxTkRfntVXWtkhW5-232" style="edgeStyle=orthogonalEdgeStyle;rounded=0;orthogonalLoop=1;jettySize=auto;html=1;entryX=1;entryY=0.5;entryDx=0;entryDy=0;" edge="1" parent="1" source="3pbTkxTkRfntVXWtkhW5-233" target="3pbTkxTkRfntVXWtkhW5-236">
          <mxGeometry relative="1" as="geometry">
            <Array as="points">
              <mxPoint x="1525" y="480" />
            </Array>
          </mxGeometry>
        </mxCell>
        <mxCell id="3pbTkxTkRfntVXWtkhW5-233" value="/GET/datasetgroup/metadata?datasetId=1" style="text;html=1;align=center;verticalAlign=middle;whiteSpace=wrap;rounded=0;" vertex="1" parent="1">
          <mxGeometry x="1570" y="467.84000000000003" width="220" height="30" as="geometry" />
        </mxCell>
        <mxCell id="3pbTkxTkRfntVXWtkhW5-384" style="edgeStyle=orthogonalEdgeStyle;rounded=0;orthogonalLoop=1;jettySize=auto;html=1;" edge="1" parent="1" source="3pbTkxTkRfntVXWtkhW5-235" target="3pbTkxTkRfntVXWtkhW5-103">
          <mxGeometry relative="1" as="geometry">
            <Array as="points">
              <mxPoint x="1240" y="480" />
              <mxPoint x="1240" y="1123" />
            </Array>
          </mxGeometry>
        </mxCell>
        <mxCell id="3pbTkxTkRfntVXWtkhW5-235" value="" style="rounded=1;whiteSpace=wrap;html=1;strokeColor=#EA6B66;" vertex="1" parent="1">
          <mxGeometry x="1255" y="445.09000000000003" width="230" height="70" as="geometry" />
        </mxCell>
        <mxCell id="3pbTkxTkRfntVXWtkhW5-236" value="/resql/get-datasetgroup-metadata" style="text;html=1;align=center;verticalAlign=middle;whiteSpace=wrap;rounded=0;" vertex="1" parent="1">
          <mxGeometry x="1260" y="467.84000000000003" width="220" height="24.5" as="geometry" />
        </mxCell>
        <mxCell id="3pbTkxTkRfntVXWtkhW5-291" style="edgeStyle=orthogonalEdgeStyle;rounded=0;orthogonalLoop=1;jettySize=auto;html=1;entryX=0;entryY=0.5;entryDx=0;entryDy=0;" edge="1" parent="1" source="3pbTkxTkRfntVXWtkhW5-293" target="3pbTkxTkRfntVXWtkhW5-295">
          <mxGeometry relative="1" as="geometry" />
        </mxCell>
        <mxCell id="3pbTkxTkRfntVXWtkhW5-293" value="" style="rounded=1;whiteSpace=wrap;html=1;" vertex="1" parent="1">
          <mxGeometry x="342.5" y="294.25" width="220" height="70" as="geometry" />
        </mxCell>
        <mxCell id="3pbTkxTkRfntVXWtkhW5-294" value="/GET/datamodel/overview/filters" style="text;html=1;align=center;verticalAlign=middle;whiteSpace=wrap;rounded=0;" vertex="1" parent="1">
          <mxGeometry x="347.5" y="314.25" width="210" height="35.25" as="geometry" />
        </mxCell>
        <mxCell id="3pbTkxTkRfntVXWtkhW5-295" value="" style="rounded=1;whiteSpace=wrap;html=1;" vertex="1" parent="1">
          <mxGeometry x="622.5" y="293.88" width="220" height="70" as="geometry" />
        </mxCell>
        <mxCell id="3pbTkxTkRfntVXWtkhW5-296" value="/resql/get-datamodel-filters" style="text;html=1;align=center;verticalAlign=middle;whiteSpace=wrap;rounded=0;" vertex="1" parent="1">
          <mxGeometry x="662.5" y="316.13" width="140" height="25.5" as="geometry" />
        </mxCell>
        <mxCell id="3pbTkxTkRfntVXWtkhW5-297" style="edgeStyle=orthogonalEdgeStyle;rounded=0;orthogonalLoop=1;jettySize=auto;html=1;entryX=0.004;entryY=0.326;entryDx=0;entryDy=0;entryPerimeter=0;" edge="1" parent="1" source="3pbTkxTkRfntVXWtkhW5-295" target="3pbTkxTkRfntVXWtkhW5-27">
          <mxGeometry relative="1" as="geometry" />
        </mxCell>
        <mxCell id="3pbTkxTkRfntVXWtkhW5-298" style="edgeStyle=orthogonalEdgeStyle;rounded=0;orthogonalLoop=1;jettySize=auto;html=1;" edge="1" parent="1" source="3pbTkxTkRfntVXWtkhW5-300">
          <mxGeometry relative="1" as="geometry">
            <mxPoint x="560" y="705.6300000000001" as="targetPoint" />
          </mxGeometry>
        </mxCell>
        <mxCell id="3pbTkxTkRfntVXWtkhW5-299" style="edgeStyle=orthogonalEdgeStyle;rounded=0;orthogonalLoop=1;jettySize=auto;html=1;entryX=0.5;entryY=0;entryDx=0;entryDy=0;" edge="1" parent="1" source="3pbTkxTkRfntVXWtkhW5-300" target="3pbTkxTkRfntVXWtkhW5-309">
          <mxGeometry relative="1" as="geometry">
            <Array as="points">
              <mxPoint x="700" y="800" />
              <mxPoint x="540" y="800" />
            </Array>
          </mxGeometry>
        </mxCell>
        <mxCell id="3pbTkxTkRfntVXWtkhW5-300" value="" style="rounded=1;whiteSpace=wrap;html=1;" vertex="1" parent="1">
          <mxGeometry x="662.5" y="670.63" width="220" height="70" as="geometry" />
        </mxCell>
        <mxCell id="3pbTkxTkRfntVXWtkhW5-301" value="/GET/datamodel/create/options" style="text;html=1;align=center;verticalAlign=middle;whiteSpace=wrap;rounded=0;" vertex="1" parent="1">
          <mxGeometry x="686.25" y="689.88" width="172.5" height="35.25" as="geometry" />
        </mxCell>
        <mxCell id="3pbTkxTkRfntVXWtkhW5-302" style="edgeStyle=orthogonalEdgeStyle;rounded=0;orthogonalLoop=1;jettySize=auto;html=1;" edge="1" parent="1" source="3pbTkxTkRfntVXWtkhW5-303">
          <mxGeometry relative="1" as="geometry">
            <mxPoint x="170" y="600" as="targetPoint" />
          </mxGeometry>
        </mxCell>
        <mxCell id="3pbTkxTkRfntVXWtkhW5-303" value="" style="rounded=1;whiteSpace=wrap;html=1;" vertex="1" parent="1">
          <mxGeometry x="337.5" y="672.5099999999999" width="220" height="70" as="geometry" />
        </mxCell>
        <mxCell id="3pbTkxTkRfntVXWtkhW5-304" value="/resql/get-datamodel-create-options" style="text;html=1;align=center;verticalAlign=middle;whiteSpace=wrap;rounded=0;" vertex="1" parent="1">
          <mxGeometry x="377.5" y="694.76" width="142.5" height="25.24" as="geometry" />
        </mxCell>
        <mxCell id="3pbTkxTkRfntVXWtkhW5-305" value="ModelConfigurations" style="swimlane;fontStyle=0;childLayout=stackLayout;horizontal=1;startSize=30;horizontalStack=0;resizeParent=1;resizeParentMax=0;resizeLast=0;collapsible=1;marginBottom=0;whiteSpace=wrap;html=1;" vertex="1" parent="1">
          <mxGeometry x="85" y="492.34000000000003" width="230" height="110" as="geometry" />
        </mxCell>
        <mxCell id="3pbTkxTkRfntVXWtkhW5-306" value="base_models: [&quot;xlnet&quot;,&quot;roberta&quot;, &quot;albert&quot;]" style="text;strokeColor=none;fillColor=none;align=left;verticalAlign=middle;spacingLeft=4;spacingRight=4;overflow=hidden;points=[[0,0.5],[1,0.5]];portConstraint=eastwest;rotatable=0;whiteSpace=wrap;html=1;" vertex="1" parent="3pbTkxTkRfntVXWtkhW5-305">
          <mxGeometry y="30" width="230" height="30" as="geometry" />
        </mxCell>
        <mxCell id="3pbTkxTkRfntVXWtkhW5-307" value="deployment_platforms: [&quot;production&quot;,&lt;br&gt;&lt;div&gt;&lt;span style=&quot;background-color: transparent; color: light-dark(rgb(0, 0, 0), rgb(255, 255, 255));&quot;&gt;&quot;testing&quot; , &quot;undeployed&quot;&lt;/span&gt;]&lt;/div&gt;" style="text;strokeColor=none;fillColor=none;align=left;verticalAlign=middle;spacingLeft=4;spacingRight=4;overflow=hidden;points=[[0,0.5],[1,0.5]];portConstraint=eastwest;rotatable=0;whiteSpace=wrap;html=1;" vertex="1" parent="3pbTkxTkRfntVXWtkhW5-305">
          <mxGeometry y="60" width="230" height="50" as="geometry" />
        </mxCell>
        <mxCell id="3pbTkxTkRfntVXWtkhW5-309" value="" style="rounded=1;whiteSpace=wrap;html=1;" vertex="1" parent="1">
          <mxGeometry x="430" y="918.9999999999999" width="220" height="70" as="geometry" />
        </mxCell>
        <mxCell id="3pbTkxTkRfntVXWtkhW5-310" value="/resql/get-datamodel-datasets" style="text;html=1;align=center;verticalAlign=middle;whiteSpace=wrap;rounded=0;" vertex="1" parent="1">
          <mxGeometry x="470" y="941.25" width="142.5" height="25.24" as="geometry" />
        </mxCell>
        <mxCell id="3pbTkxTkRfntVXWtkhW5-311" value="SELECT group_id,, major_version, minor_version, from DatasetsMetadata WHERE generated_data_available==True" style="text;html=1;align=center;verticalAlign=middle;whiteSpace=wrap;rounded=0;" vertex="1" parent="1">
          <mxGeometry x="230" y="847.82" width="290" height="34" as="geometry" />
        </mxCell>
        <mxCell id="3pbTkxTkRfntVXWtkhW5-312" style="edgeStyle=orthogonalEdgeStyle;rounded=0;orthogonalLoop=1;jettySize=auto;html=1;entryX=0.022;entryY=-0.233;entryDx=0;entryDy=0;entryPerimeter=0;" edge="1" parent="1" source="3pbTkxTkRfntVXWtkhW5-309" target="3pbTkxTkRfntVXWtkhW5-111">
          <mxGeometry relative="1" as="geometry" />
        </mxCell>
        <mxCell id="3pbTkxTkRfntVXWtkhW5-314" value="" style="rounded=1;whiteSpace=wrap;html=1;" vertex="1" parent="1">
          <mxGeometry x="1872.5" y="178.5" width="230" height="49.5" as="geometry" />
        </mxCell>
        <mxCell id="3pbTkxTkRfntVXWtkhW5-316" value="/POST/datamodel/retrain" style="text;html=1;align=center;verticalAlign=middle;whiteSpace=wrap;rounded=0;" vertex="1" parent="1">
          <mxGeometry x="1867.51" y="186.38" width="230" height="33.75" as="geometry" />
        </mxCell>
        <mxCell id="3pbTkxTkRfntVXWtkhW5-317" style="edgeStyle=orthogonalEdgeStyle;rounded=0;orthogonalLoop=1;jettySize=auto;html=1;entryX=0.51;entryY=0.047;entryDx=0;entryDy=0;entryPerimeter=0;" edge="1" parent="1" source="3pbTkxTkRfntVXWtkhW5-314" target="3pbTkxTkRfntVXWtkhW5-72">
          <mxGeometry relative="1" as="geometry" />
        </mxCell>
        <mxCell id="3pbTkxTkRfntVXWtkhW5-318" style="edgeStyle=orthogonalEdgeStyle;rounded=0;orthogonalLoop=1;jettySize=auto;html=1;exitX=0;exitY=0.25;exitDx=0;exitDy=0;entryX=1;entryY=0.5;entryDx=0;entryDy=0;jumpSize=14;jumpStyle=arc;" edge="1" parent="1">
          <mxGeometry relative="1" as="geometry">
            <mxPoint x="1910" y="389" as="sourcePoint" />
            <mxPoint x="1780" y="-19" as="targetPoint" />
            <Array as="points">
              <mxPoint x="1820" y="389" />
              <mxPoint x="1820" y="-19" />
            </Array>
          </mxGeometry>
        </mxCell>
        <mxCell id="3pbTkxTkRfntVXWtkhW5-319" style="edgeStyle=orthogonalEdgeStyle;rounded=0;orthogonalLoop=1;jettySize=auto;html=1;entryX=0.083;entryY=1.012;entryDx=0;entryDy=0;entryPerimeter=0;" edge="1" parent="1" source="3pbTkxTkRfntVXWtkhW5-227" target="3pbTkxTkRfntVXWtkhW5-129">
          <mxGeometry relative="1" as="geometry" />
        </mxCell>
        <mxCell id="3pbTkxTkRfntVXWtkhW5-320" value="" style="rounded=1;whiteSpace=wrap;html=1;strokeColor=#CC0066;" vertex="1" parent="1">
          <mxGeometry x="1350" y="536.74" width="150" height="136" as="geometry" />
        </mxCell>
        <mxCell id="3pbTkxTkRfntVXWtkhW5-321" value="" style="shape=image;html=1;verticalAlign=top;verticalLabelPosition=bottom;labelBackgroundColor=#ffffff;imageAspect=0;aspect=fixed;image=https://cdn1.iconfinder.com/data/icons/ionicons-fill-vol-2/512/logo-python-128.png;strokeColor=#CC0066;perimeterSpacing=5;imageBackground=none;" vertex="1" parent="1">
          <mxGeometry x="1393.5" y="562.11" width="61.5" height="61.5" as="geometry" />
        </mxCell>
        <mxCell id="3pbTkxTkRfntVXWtkhW5-322" value="data_processor.py" style="text;html=1;align=center;verticalAlign=middle;whiteSpace=wrap;rounded=0;strokeColor=none;" vertex="1" parent="1">
          <mxGeometry x="1360" y="638.7499999999999" width="130" height="0.09" as="geometry" />
        </mxCell>
        <mxCell id="3pbTkxTkRfntVXWtkhW5-323" style="edgeStyle=orthogonalEdgeStyle;rounded=0;orthogonalLoop=1;jettySize=auto;html=1;entryX=0.163;entryY=0.969;entryDx=0;entryDy=0;entryPerimeter=0;" edge="1" parent="1" source="3pbTkxTkRfntVXWtkhW5-320" target="3pbTkxTkRfntVXWtkhW5-129">
          <mxGeometry relative="1" as="geometry" />
        </mxCell>
        <mxCell id="3pbTkxTkRfntVXWtkhW5-324" style="edgeStyle=orthogonalEdgeStyle;rounded=0;orthogonalLoop=1;jettySize=auto;html=1;entryX=1;entryY=0.5;entryDx=0;entryDy=0;" edge="1" parent="1" source="3pbTkxTkRfntVXWtkhW5-325" target="3pbTkxTkRfntVXWtkhW5-328">
          <mxGeometry relative="1" as="geometry">
            <Array as="points">
              <mxPoint x="1645" y="720" />
              <mxPoint x="1510" y="720" />
            </Array>
          </mxGeometry>
        </mxCell>
        <mxCell id="3pbTkxTkRfntVXWtkhW5-325" value="" style="rounded=1;whiteSpace=wrap;html=1;" vertex="1" parent="1">
          <mxGeometry x="1530" y="644.93" width="230" height="58.75" as="geometry" />
        </mxCell>
        <mxCell id="3pbTkxTkRfntVXWtkhW5-326" value="/POST/datamodel/update/datasetgroup" style="text;html=1;align=center;verticalAlign=middle;whiteSpace=wrap;rounded=0;" vertex="1" parent="1">
          <mxGeometry x="1530" y="657.43" width="230" height="33.75" as="geometry" />
        </mxCell>
        <mxCell id="3pbTkxTkRfntVXWtkhW5-327" value="" style="rounded=1;whiteSpace=wrap;html=1;" vertex="1" parent="1">
          <mxGeometry x="1280" y="690.25" width="230" height="58.75" as="geometry" />
        </mxCell>
        <mxCell id="3pbTkxTkRfntVXWtkhW5-328" value="/resql/remove-datamodel-datasetgroup-connection" style="text;html=1;align=center;verticalAlign=middle;whiteSpace=wrap;rounded=0;" vertex="1" parent="1">
          <mxGeometry x="1280" y="702.75" width="230" height="33.75" as="geometry" />
        </mxCell>
        <mxCell id="3pbTkxTkRfntVXWtkhW5-330" style="edgeStyle=orthogonalEdgeStyle;rounded=0;orthogonalLoop=1;jettySize=auto;html=1;exitX=0.5;exitY=1;exitDx=0;exitDy=0;entryX=0.5;entryY=0;entryDx=0;entryDy=0;" edge="1" parent="1" source="3pbTkxTkRfntVXWtkhW5-331" target="3pbTkxTkRfntVXWtkhW5-224">
          <mxGeometry relative="1" as="geometry" />
        </mxCell>
        <mxCell id="3pbTkxTkRfntVXWtkhW5-331" value="" style="rounded=1;whiteSpace=wrap;html=1;" vertex="1" parent="1">
          <mxGeometry x="1668.94" y="-363.75" width="230" height="58.75" as="geometry" />
        </mxCell>
        <mxCell id="3pbTkxTkRfntVXWtkhW5-332" value="/POST/datamodel/metadata/delete" style="text;html=1;align=center;verticalAlign=middle;whiteSpace=wrap;rounded=0;" vertex="1" parent="1">
          <mxGeometry x="1668.94" y="-351.25" width="230" height="33.75" as="geometry" />
        </mxCell>
        <mxCell id="3pbTkxTkRfntVXWtkhW5-336" style="edgeStyle=orthogonalEdgeStyle;rounded=0;orthogonalLoop=1;jettySize=auto;html=1;exitX=1;exitY=0.25;exitDx=0;exitDy=0;entryX=0.116;entryY=0.961;entryDx=0;entryDy=0;entryPerimeter=0;" edge="1" parent="1" source="3pbTkxTkRfntVXWtkhW5-53" target="3pbTkxTkRfntVXWtkhW5-72">
          <mxGeometry relative="1" as="geometry">
            <Array as="points">
              <mxPoint x="1200" y="767" />
              <mxPoint x="1200" y="350" />
              <mxPoint x="1885" y="350" />
            </Array>
          </mxGeometry>
        </mxCell>
        <mxCell id="3pbTkxTkRfntVXWtkhW5-337" style="edgeStyle=orthogonalEdgeStyle;rounded=0;orthogonalLoop=1;jettySize=auto;html=1;entryX=1;entryY=0.5;entryDx=0;entryDy=0;" edge="1" parent="1" source="3pbTkxTkRfntVXWtkhW5-338" target="3pbTkxTkRfntVXWtkhW5-340">
          <mxGeometry relative="1" as="geometry" />
        </mxCell>
        <mxCell id="3pbTkxTkRfntVXWtkhW5-338" value="" style="rounded=1;whiteSpace=wrap;html=1;" vertex="1" parent="1">
          <mxGeometry x="1220" y="-363.75" width="390" height="58.75" as="geometry" />
        </mxCell>
        <mxCell id="3pbTkxTkRfntVXWtkhW5-339" value="/POST/datamodel/datasetgroup/connection/delete" style="text;html=1;align=center;verticalAlign=middle;whiteSpace=wrap;rounded=0;" vertex="1" parent="1">
          <mxGeometry x="1275" y="-351.25" width="230" height="33.75" as="geometry" />
        </mxCell>
        <mxCell id="3pbTkxTkRfntVXWtkhW5-340" value="" style="rounded=1;whiteSpace=wrap;html=1;" vertex="1" parent="1">
          <mxGeometry x="884.99" y="-371" width="260.01" height="62" as="geometry" />
        </mxCell>
        <mxCell id="3pbTkxTkRfntVXWtkhW5-341" style="edgeStyle=orthogonalEdgeStyle;rounded=0;orthogonalLoop=1;jettySize=auto;html=1;entryX=0;entryY=0.5;entryDx=0;entryDy=0;" edge="1" parent="1" source="3pbTkxTkRfntVXWtkhW5-342">
          <mxGeometry relative="1" as="geometry">
            <Array as="points">
              <mxPoint x="30" y="-338" />
              <mxPoint x="30" y="1443" />
            </Array>
            <mxPoint x="1360" y="1442.6" as="targetPoint" />
          </mxGeometry>
        </mxCell>
        <mxCell id="3pbTkxTkRfntVXWtkhW5-342" value="/resql/datamodel/delete-dataset-connection" style="text;html=1;align=center;verticalAlign=middle;whiteSpace=wrap;rounded=0;" vertex="1" parent="1">
          <mxGeometry x="899.99" y="-350.25" width="230.01" height="25.25" as="geometry" />
        </mxCell>
        <mxCell id="3pbTkxTkRfntVXWtkhW5-350" style="edgeStyle=orthogonalEdgeStyle;rounded=0;orthogonalLoop=1;jettySize=auto;html=1;entryX=1.004;entryY=0.037;entryDx=0;entryDy=0;entryPerimeter=0;" edge="1" parent="1" source="3pbTkxTkRfntVXWtkhW5-44" target="3pbTkxTkRfntVXWtkhW5-17">
          <mxGeometry relative="1" as="geometry" />
        </mxCell>
        <mxCell id="3pbTkxTkRfntVXWtkhW5-381" value="&lt;font style=&quot;font-size: 11px;&quot;&gt;If the production model has the &quot;re-train needed&quot; deployment status then the&amp;nbsp;&lt;/font&gt;&lt;div&gt;&lt;font style=&quot;font-size: 11px;&quot;&gt;re-train needed flag should&amp;nbsp;&lt;/font&gt;&lt;/div&gt;&lt;div&gt;&lt;font style=&quot;font-size: 11px;&quot;&gt;be shown in the UI to trigger the training for the production model only&amp;nbsp;&lt;/font&gt;&lt;/div&gt;" style="strokeWidth=1;shadow=0;dashed=0;align=center;html=1;shape=mxgraph.mockup.text.stickyNote2;fontColor=#666666;mainText=;fontSize=17;whiteSpace=wrap;fillColor=#ffffcc;strokeColor=#F62E00;" vertex="1" parent="1">
          <mxGeometry x="377.5" y="22.25" width="212.5" height="123.75" as="geometry" />
        </mxCell>
        <mxCell id="3pbTkxTkRfntVXWtkhW5-383" style="edgeStyle=orthogonalEdgeStyle;rounded=0;orthogonalLoop=1;jettySize=auto;html=1;exitX=0;exitY=0.5;exitDx=0;exitDy=0;entryX=1.004;entryY=0.094;entryDx=0;entryDy=0;entryPerimeter=0;" edge="1" parent="1" source="3pbTkxTkRfntVXWtkhW5-134" target="3pbTkxTkRfntVXWtkhW5-33">
          <mxGeometry relative="1" as="geometry" />
        </mxCell>
        <mxCell id="3pbTkxTkRfntVXWtkhW5-385" value="CronJob Function to delete data model progress sessions every 24 hours" style="strokeWidth=1;shadow=0;dashed=0;align=center;html=1;shape=mxgraph.mockup.text.stickyNote2;fontColor=#666666;mainText=;fontSize=17;whiteSpace=wrap;fillColor=#ffffcc;strokeColor=#F62E00;" vertex="1" parent="1">
          <mxGeometry x="3580" y="-279" width="226" height="95" as="geometry" />
        </mxCell>
        <mxCell id="3pbTkxTkRfntVXWtkhW5-386" value="" style="rounded=1;whiteSpace=wrap;html=1;" vertex="1" parent="1">
          <mxGeometry x="1843.86" y="888" width="235" height="60.87" as="geometry" />
        </mxCell>
        <mxCell id="3pbTkxTkRfntVXWtkhW5-387" value="/POST/s3-ferry/v1/files/copy" style="text;html=1;align=center;verticalAlign=middle;whiteSpace=wrap;rounded=0;" vertex="1" parent="1">
          <mxGeometry x="1859.1699999999998" y="910" width="195" height="20.13" as="geometry" />
        </mxCell>
        <mxCell id="3pbTkxTkRfntVXWtkhW5-392" style="edgeStyle=orthogonalEdgeStyle;rounded=0;orthogonalLoop=1;jettySize=auto;html=1;exitX=0.5;exitY=0;exitDx=0;exitDy=0;entryX=0.5;entryY=1;entryDx=0;entryDy=0;" edge="1" parent="1" source="3pbTkxTkRfntVXWtkhW5-388" target="3pbTkxTkRfntVXWtkhW5-386">
          <mxGeometry relative="1" as="geometry" />
        </mxCell>
        <mxCell id="3pbTkxTkRfntVXWtkhW5-388" value="" style="rounded=1;whiteSpace=wrap;html=1;" vertex="1" parent="1">
          <mxGeometry x="1876.36" y="1012.26" width="170" height="119.75" as="geometry" />
        </mxCell>
        <mxCell id="3pbTkxTkRfntVXWtkhW5-389" value="" style="sketch=0;pointerEvents=1;shadow=0;dashed=0;html=1;strokeColor=none;fillColor=#DF8C42;labelPosition=center;verticalLabelPosition=bottom;verticalAlign=top;align=center;outlineConnect=0;shape=mxgraph.veeam2.aws_s3;" vertex="1" parent="1">
          <mxGeometry x="1929.3000000000004" y="1036.51" width="64.13" height="57" as="geometry" />
        </mxCell>
        <mxCell id="3pbTkxTkRfntVXWtkhW5-390" value="Datasets Bucket" style="text;html=1;align=center;verticalAlign=middle;whiteSpace=wrap;rounded=0;" vertex="1" parent="1">
          <mxGeometry x="1906.99" y="1093.51" width="108.75" height="28" as="geometry" />
        </mxCell>
        <mxCell id="3pbTkxTkRfntVXWtkhW5-394" style="edgeStyle=orthogonalEdgeStyle;rounded=0;orthogonalLoop=1;jettySize=auto;html=1;entryX=0.343;entryY=0.993;entryDx=0;entryDy=0;entryPerimeter=0;" edge="1" parent="1" source="3pbTkxTkRfntVXWtkhW5-386" target="3pbTkxTkRfntVXWtkhW5-67">
          <mxGeometry relative="1" as="geometry" />
        </mxCell>
        <mxCell id="3pbTkxTkRfntVXWtkhW5-396" value="&lt;font style=&quot;font-size: 11px;&quot;&gt;Both of the /deployment endpoints will take in model_id to be deployed, will download the model, and then expose it&amp;nbsp;&lt;/font&gt;" style="strokeWidth=1;shadow=0;dashed=0;align=center;html=1;shape=mxgraph.mockup.text.stickyNote2;fontColor=#666666;mainText=;fontSize=17;whiteSpace=wrap;fillColor=#ffffcc;strokeColor=#F62E00;" vertex="1" parent="1">
          <mxGeometry x="2440.64" y="572.76" width="190" height="122" as="geometry" />
        </mxCell>
      </root>
    </mxGraphModel>
  </diagram>
</mxfile>
